<svg width="25" height="24" viewBox="0 0 25 24" fill="none" xmlns="http://www.w3.org/2000/svg">
<path fill-rule="evenodd" clip-rule="evenodd" d="M9.929 8.969H13.643V10.819C14.178 9.755 15.55 8.799 17.611 8.799C21.562 8.799 22.5 10.917 22.5 14.803V22H18.5V15.688C18.5 13.475 17.965 12.227 16.603 12.227C14.714 12.227 13.929 13.572 13.929 15.687V22H9.929V8.969ZM3.07 21.83H7.07V8.799H3.07V21.83ZM7.643 4.55C7.64315 4.88528 7.57666 5.21724 7.44739 5.52659C7.31812 5.83594 7.12865 6.11651 6.89 6.352C6.4064 6.83262 5.75181 7.10165 5.07 7.1C4.38939 7.09954 3.73631 6.8312 3.252 6.353C3.01421 6.11671 2.82539 5.83582 2.69634 5.52643C2.5673 5.21704 2.50058 4.88522 2.5 4.55C2.5 3.873 2.77 3.225 3.253 2.747C3.73689 2.26816 4.39024 1.9997 5.071 2C5.753 2 6.407 2.269 6.89 2.747C7.372 3.225 7.643 3.873 7.643 4.55Z" fill="#030303"/>
</svg>
