<svg width="108" height="22" viewBox="0 0 108 22" fill="none" xmlns="http://www.w3.org/2000/svg">
<path d="M65.6935 0.638931C64.2793 0.637161 62.8802 0.934955 61.5858 1.51329C62.1756 2.51223 62.7637 3.51346 63.3501 4.51697C64.9129 3.9363 66.6308 3.95581 68.1805 4.57183C68.7433 3.56032 69.306 2.55052 69.8688 1.54244C68.5558 0.944367 67.1326 0.6364 65.6935 0.638931Z" fill="#199AD6"/>
<path d="M71.7744 2.67407C71.1835 3.6673 70.592 4.65938 69.9999 5.65032C71.3184 6.7423 72.1854 8.29688 72.4295 10.0067L75.8433 9.8661C75.69 8.44724 75.2493 7.07592 74.5491 5.83825C73.8489 4.60058 72.9042 3.5233 71.7744 2.67407Z" fill="#69C7B9"/>
<path d="M61.3127 5.71463L59.469 2.78467C57.4095 4.3912 56.03 6.73414 55.6113 9.33683C55.1926 11.9395 55.7661 14.6064 57.2151 16.795L59.8574 14.5662C59.0206 13.1558 58.7075 11.4883 58.9743 9.86413C59.2411 8.23999 60.0704 6.76601 61.3127 5.70777V5.71463Z" fill="#D61B5E"/>
<path d="M72.3798 12.3176C72.1553 13.4971 71.6321 14.5968 70.8616 15.5083C70.0911 16.4199 69.0999 17.1118 67.9859 17.5159C66.8718 17.92 65.6733 18.0223 64.5084 17.8127C63.3435 17.6032 62.2525 17.089 61.343 16.3208L58.7328 18.5924C60.1042 19.8896 61.8006 20.7785 63.6364 21.1618C65.4721 21.5452 67.3763 21.4083 69.1405 20.766C70.9047 20.1237 72.4609 19.0008 73.6385 17.5204C74.8162 16.0399 75.5699 14.2589 75.8173 12.3725L72.3798 12.3176Z" fill="#BF9CC9"/>
<path d="M9.38895 21.4191C7.42258 21.4191 5.73985 20.9962 4.34077 20.1504C2.93771 19.3035 1.81637 18.0496 1.12107 16.5501C0.372566 14.9957 -0.00112304 13.143 2.53507e-06 10.9919C2.53507e-06 8.86032 0.373692 7.01674 1.12107 5.46118C1.81732 3.96231 2.93844 2.70867 4.34077 1.86088C5.73873 1.01624 7.42146 0.593922 9.38895 0.593922C10.5245 0.587503 11.6541 0.761033 12.737 1.10825C13.7351 1.42154 14.6676 1.91968 15.4873 2.57751C15.6295 2.66561 15.7521 2.78272 15.8474 2.92141C15.9428 3.06011 16.0087 3.21739 16.0411 3.38329C16.0929 3.66734 16.0368 3.96079 15.8841 4.2045C15.8132 4.32054 15.7202 4.42109 15.6106 4.50027C15.5011 4.57945 15.3771 4.63568 15.2459 4.66568C14.9723 4.73198 14.6651 4.64054 14.324 4.39138C12.9812 3.29757 11.3553 2.75067 9.44636 2.75067C7.19521 2.75067 5.47422 3.47073 4.28336 4.91085C3.09251 6.35097 2.49427 8.37799 2.48864 10.9919C2.48864 13.6207 3.08407 15.6563 4.27492 17.0987C5.46578 18.5411 7.18677 19.2612 9.43791 19.2589C11.3514 19.2589 12.9964 18.7017 14.373 17.5873C14.7107 17.3576 15.0196 17.2701 15.2948 17.3284C15.4229 17.3521 15.5447 17.4027 15.6523 17.4771C15.7599 17.5516 15.851 17.6481 15.9195 17.7605C16.0612 17.9928 16.1163 18.2689 16.0748 18.5388C16.0217 18.8525 15.848 19.1318 15.592 19.3155C14.7633 20.016 13.8102 20.549 12.7842 20.8859C11.6878 21.2466 10.5415 21.4266 9.38895 21.4191Z" fill="#131314"/>
<path d="M33.6121 0.650146C32.8354 0.650146 32.4477 1.06332 32.4488 1.88968V9.83947H23.4094C23.1407 9.83947 22.883 9.94785 22.693 10.1408C22.5031 10.3337 22.3963 10.5953 22.3963 10.8681C22.3963 11.1409 22.5031 11.4026 22.693 11.5955C22.883 11.7884 23.1407 11.8968 23.4094 11.8968H32.4556V20.1346C32.4556 20.9598 32.8433 21.3724 33.6188 21.3724C34.3944 21.3724 34.7816 20.9598 34.7804 20.1346V1.88968C34.7759 1.06332 34.3865 0.650146 33.6121 0.650146ZM19.2864 0.650146C18.5109 0.650146 18.1231 1.06332 18.1231 1.88968V20.1226C18.1231 20.9478 18.5109 21.3604 19.2864 21.3604C20.0428 21.3604 20.43 20.9672 20.448 20.1809H20.3703V3.55096H20.4497V1.88968C20.4497 1.06332 20.0619 0.650146 19.2864 0.650146Z" fill="#131314"/>
<path d="M55.0714 19.7472L47.2425 1.71653C47.1327 1.39024 46.93 1.10442 46.66 0.895323C46.4309 0.734451 46.1586 0.648877 45.88 0.650161C45.2564 0.650161 44.7933 1.00562 44.4905 1.71653L36.6903 19.7472C36.4809 20.2044 36.4618 20.5884 36.6329 20.8993C36.804 21.2102 37.1163 21.3639 37.5699 21.3605C38.1169 21.3605 38.5424 21.005 38.8463 20.2941L40.04 17.4533C40.4902 16.3229 40.9641 15.1748 41.4616 14.009C41.7745 13.2809 42.0879 12.5643 42.402 11.8591L45.8513 3.61784H45.9087L50.241 13.9867H44.1241C43.8834 13.9864 43.6513 14.0773 43.473 14.2415C43.2947 14.4057 43.1832 14.6315 43.1601 14.8748V14.8953C43.1468 15.0319 43.162 15.1697 43.2044 15.3C43.2469 15.4303 43.3157 15.5501 43.4065 15.6516C43.4974 15.7532 43.6081 15.8344 43.7317 15.8899C43.8553 15.9453 43.989 15.9739 44.1241 15.9737H51.0734L52.9171 20.2941C53.0194 20.5963 53.1934 20.8683 53.4236 21.0861C53.6549 21.2775 53.9478 21.3752 54.2458 21.3605C54.696 21.3605 54.9988 21.2067 55.1541 20.8993C55.3061 20.5924 55.2791 20.2084 55.0714 19.7472Z" fill="#131314"/>
<path d="M84.8859 21.4194C83.5879 21.428 82.2948 21.2584 81.0415 20.9154C79.9251 20.6195 78.8723 20.1161 77.9366 19.4307C77.8022 19.3487 77.6853 19.2404 77.5925 19.1121C77.4998 18.9837 77.4331 18.8379 77.3963 18.6832C77.3382 18.4103 77.3733 18.1255 77.496 17.8757C77.5505 17.7584 77.6276 17.6534 77.7227 17.5668C77.8178 17.4803 77.929 17.4139 78.0497 17.3716C78.2951 17.2859 78.5765 17.3482 78.8939 17.5585C79.712 18.1761 80.6352 18.6353 81.6172 18.9129C82.6837 19.1981 83.7831 19.3365 84.8859 19.3244C86.5878 19.3244 87.8501 19.0026 88.6729 18.3592C89.0661 18.0674 89.3838 17.6833 89.5987 17.2396C89.8137 16.7959 89.9195 16.3058 89.9071 15.8115C89.9216 15.4278 89.8484 15.0459 89.6932 14.6958C89.5379 14.3457 89.3048 14.0369 89.0122 13.7936C88.4179 13.2953 87.4207 12.9021 86.0205 12.6141L83.0709 12.0089C81.2936 11.6249 79.9649 10.9963 79.0847 10.123C78.2045 9.24983 77.7655 8.08002 77.7678 6.61362C77.744 5.48599 78.0661 4.37877 78.6896 3.44535C79.3366 2.51665 80.2251 1.78891 81.2559 1.34347C82.4565 0.822386 83.7527 0.566984 85.0581 0.594261C86.1881 0.585028 87.3126 0.755092 88.3909 1.0983C89.4051 1.42566 90.352 1.93808 91.1852 2.61043C91.4263 2.78663 91.5933 3.04861 91.6528 3.3442C91.7026 3.6059 91.657 3.87703 91.5245 4.10712C91.4651 4.21714 91.3841 4.31362 91.2866 4.39058C91.189 4.46755 91.0769 4.52337 90.9572 4.55459C90.7119 4.62202 90.4186 4.55002 90.0776 4.33857C89.374 3.77087 88.5724 3.34123 87.7139 3.07161C86.8414 2.8135 85.9364 2.68643 85.0277 2.69443C83.533 2.69443 82.3415 3.04475 81.4535 3.74538C81.0273 4.06583 80.6836 4.48592 80.4514 4.97001C80.2192 5.4541 80.1054 5.98792 80.1197 6.52618C80.1197 7.4474 80.4011 8.17717 80.9638 8.7155C81.5266 9.25383 82.4366 9.64701 83.6939 9.89503L86.6452 10.5294C88.5586 10.9328 89.9718 11.5426 90.8846 12.3587C91.7975 13.1747 92.2561 14.2834 92.2606 15.6847C92.2802 16.754 91.9677 17.8025 91.3675 18.6815C90.7215 19.5848 89.8363 20.2834 88.8147 20.6959C87.7094 21.1782 86.3998 21.4194 84.8859 21.4194Z" fill="#131314"/>
<path d="M100.625 21.4194C99.3272 21.4278 98.0346 21.2583 96.7819 20.9154C95.6648 20.6199 94.6115 20.1165 93.6753 19.4307C93.5412 19.3485 93.4246 19.2401 93.3321 19.1118C93.2397 18.9835 93.1733 18.8378 93.1367 18.6832C93.078 18.4105 93.1126 18.1257 93.2347 17.8757C93.2892 17.7584 93.3663 17.6534 93.4614 17.5668C93.5565 17.4803 93.6677 17.4139 93.7884 17.3717C94.0349 17.2859 94.3169 17.3476 94.6326 17.5585C95.4507 18.1761 96.3739 18.6353 97.3559 18.9129C98.4224 19.1981 99.5218 19.3365 100.625 19.3244C102.326 19.3244 103.589 19.0026 104.412 18.3592C104.805 18.0674 105.122 17.6833 105.337 17.2396C105.552 16.7959 105.658 16.3058 105.646 15.8115C105.66 15.428 105.587 15.0463 105.432 14.6962C105.277 14.3461 105.045 14.0372 104.753 13.7936C104.157 13.2953 103.159 12.9021 101.759 12.6141L98.8096 12.0089C97.0323 11.6249 95.7036 10.9963 94.8234 10.1231C93.9432 9.24984 93.5037 8.08345 93.5048 6.6239C93.481 5.49628 93.8031 4.38906 94.4266 3.45564C95.0725 2.52271 95.9618 1.79123 96.9946 1.34347C98.1946 0.822376 99.4902 0.566968 100.795 0.594264C101.925 0.585031 103.05 0.755095 104.128 1.09831C105.142 1.42566 106.089 1.93808 106.922 2.61043C107.164 2.78555 107.332 3.04802 107.39 3.34421C107.44 3.60589 107.395 3.87731 107.262 4.10713C107.202 4.21714 107.121 4.31362 107.024 4.39058C106.926 4.46755 106.814 4.52337 106.694 4.55459C106.449 4.62145 106.156 4.55459 105.816 4.33857C105.113 3.77101 104.311 3.34138 103.453 3.07161C102.58 2.81338 101.675 2.68631 100.766 2.69444C99.2762 2.69444 98.0847 3.04532 97.1922 3.7471C96.7664 4.06783 96.4231 4.48802 96.1912 4.97208C95.9593 5.45613 95.8457 5.9898 95.86 6.5279C95.86 7.44912 96.1414 8.17889 96.7042 8.71722C97.267 9.25555 98.1765 9.64815 99.4326 9.89503L102.384 10.5294C104.297 10.9328 105.71 11.5426 106.623 12.3587C107.536 13.1747 107.995 14.2834 107.999 15.6847C108.019 16.754 107.706 17.8025 107.106 18.6815C106.46 19.5848 105.575 20.2834 104.553 20.6959C103.448 21.1782 102.138 21.4194 100.625 21.4194Z" fill="#131314"/>
</svg>
