<svg width="33" height="34" viewBox="0 0 33 34" fill="none" xmlns="http://www.w3.org/2000/svg">
<rect y="0.252686" width="33" height="33" rx="16.5" fill="#D61B5E"/>
<path d="M16.0245 9.50186C16.1741 9.0412 16.8259 9.0412 16.9755 9.50186L18.3442 13.7143C18.4112 13.9203 18.6032 14.0598 18.8198 14.0598H23.249C23.7334 14.0598 23.9348 14.6796 23.5429 14.9643L19.9596 17.5677C19.7843 17.6951 19.711 17.9208 19.7779 18.1268L21.1466 22.3392C21.2963 22.7999 20.7691 23.1829 20.3772 22.8982L16.7939 20.2948C16.6186 20.1675 16.3814 20.1675 16.2061 20.2948L12.6228 22.8982C12.2309 23.1829 11.7037 22.7999 11.8534 22.3392L13.2221 18.1268C13.289 17.9208 13.2157 17.6951 13.0404 17.5677L9.45711 14.9643C9.06525 14.6796 9.26664 14.0598 9.751 14.0598H14.1802C14.3968 14.0598 14.5888 13.9203 14.6558 13.7143L16.0245 9.50186Z" fill="#FEFEFE"/>
</svg>
