<svg xmlns="http://www.w3.org/2000/svg" width="17" height="15" viewBox="0 0 17 15" fill="none">
  <path fillRule="evenodd" clip-rule="evenodd" d="M15.2729 5.78799L13.5758 4.09094L11.8788 5.78798L11.8787 5.78788L13.5757 4.09086L11.8786 2.39381L11.8784 2.39403L10.1815 0.697058L8.48441 2.39411L10.1815 4.09116L10.1817 4.09094L11.8786 5.78788L10.1819 7.48463L8.48509 5.78786L6.78804 7.4849L8.48509 9.18195L10.1819 7.48518L11.8786 9.18195L13.5754 7.48518L13.5756 7.48531L11.8788 9.18211L13.5758 10.8792L15.2729 9.18211L15.2725 9.18171L16.9693 7.4849L15.2726 5.78825L15.2729 5.78799ZM5.0904 5.78789L6.78745 7.48494L5.0904 9.18199L3.39369 7.48527L1.69698 9.18198L-7.13321e-05 7.48493L1.69698 5.78789L3.39369 7.4846L5.0904 5.78789ZM11.8786 9.18226L13.5757 10.8793L11.8786 12.5764L11.8784 12.5761L10.1815 14.273L8.48441 12.576L10.1815 10.8789L10.1817 10.8792L11.8786 9.18226Z" fill="#D61B5E"/>
</svg>