<svg xmlns="http://www.w3.org/2000/svg" width="16" height="16" viewBox="0 0 16 16" fill="none">
  <path d="M12.6667 2.66634H12V1.33301H10.6667V2.66634H5.33333V1.33301H4V2.66634H3.33333C2.59333 2.66634 2.00667 3.26634 2.00667 3.99967L2 13.333C2 14.0663 2.59333 14.6663 3.33333 14.6663H12.6667C13.4 14.6663 14 14.0663 14 13.333V3.99967C14 3.26634 13.4 2.66634 12.6667 2.66634ZM12.6667 13.333H3.33333V6.66634H12.6667V13.333ZM12.6667 5.33301H3.33333V3.99967H12.6667V5.33301ZM6 9.33301H4.66667V7.99967H6V9.33301ZM8.66667 9.33301H7.33333V7.99967H8.66667V9.33301ZM11.3333 9.33301H10V7.99967H11.3333V9.33301ZM6 11.9997H4.66667V10.6663H6V11.9997ZM8.66667 11.9997H7.33333V10.6663H8.66667V11.9997ZM11.3333 11.9997H10V10.6663H11.3333V11.9997Z" fill="black"/>
</svg>