<svg width="48" height="48" viewBox="0 0 48 48" fill="none" xmlns="http://www.w3.org/2000/svg">
<g clip-path="url(#clip0_4310_4449)">
<path d="M24 12C17.374 12 12 17.373 12 24C12 29.302 15.438 33.8 20.207 35.387C20.806 35.498 21 35.126 21 34.81V32.576C17.662 33.302 16.967 31.16 16.967 31.16C16.421 29.773 15.634 29.404 15.634 29.404C14.545 28.659 15.717 28.675 15.717 28.675C16.922 28.759 17.556 29.912 17.556 29.912C18.626 31.746 20.363 31.216 21.048 30.909C21.155 30.134 21.466 29.604 21.81 29.305C19.145 29 16.343 27.971 16.343 23.374C16.343 22.063 16.812 20.993 17.579 20.153C17.455 19.85 17.044 18.629 17.696 16.977C17.696 16.977 18.704 16.655 20.997 18.207C21.954 17.941 22.98 17.808 24 17.803C25.02 17.808 26.047 17.941 27.006 18.207C29.297 16.655 30.303 16.977 30.303 16.977C30.956 18.63 30.545 19.851 30.421 20.153C31.191 20.993 31.656 22.064 31.656 23.374C31.656 27.983 28.849 28.998 26.177 29.295C26.607 29.667 27 30.397 27 31.517V34.81C27 35.129 27.192 35.504 27.801 35.386C32.566 33.797 36 29.3 36 24C36 17.373 30.627 12 24 12Z" fill="white"/>
</g>
<rect x="0.5" y="0.5" width="47" height="47" rx="23.5" stroke="#444444"/>
<defs>
<clipPath id="clip0_4310_4449">
<rect width="24" height="24" fill="white" transform="translate(12 12)"/>
</clipPath>
</defs>
</svg>
