<svg width="48" height="48" viewBox="0 0 48 48" fill="none" xmlns="http://www.w3.org/2000/svg">
<path fillRule="evenodd" clip-rule="evenodd" d="M21.429 20.969H25.143V22.819C25.678 21.755 27.05 20.799 29.111 20.799C33.062 20.799 34 22.917 34 26.803V34H30V27.688C30 25.475 29.465 24.227 28.103 24.227C26.214 24.227 25.429 25.572 25.429 27.687V34H21.429V20.969ZM14.57 33.83H18.57V20.799H14.57V33.83ZM19.143 16.55C19.1431 16.8853 19.0767 17.2172 18.9474 17.5266C18.8181 17.8359 18.6287 18.1165 18.39 18.352C17.9064 18.8326 17.2518 19.1017 16.57 19.1C15.8894 19.0995 15.2363 18.8312 14.752 18.353C14.5142 18.1167 14.3254 17.8358 14.1963 17.5264C14.0673 17.217 14.0006 16.8852 14 16.55C14 15.873 14.27 15.225 14.753 14.747C15.2369 14.2682 15.8902 13.9997 16.571 14C17.253 14 17.907 14.269 18.39 14.747C18.872 15.225 19.143 15.873 19.143 16.55Z" fill="white"/>
<rect x="0.5" y="0.5" width="47" height="47" rx="23.5" stroke="#444444"/>
</svg>
