<svg width="17" height="15" viewBox="0 0 17 15" fill="none" xmlns="http://www.w3.org/2000/svg">
<path fillRule="evenodd" clip-rule="evenodd" d="M15.288 5.80362L13.5909 4.10657L11.8939 5.8036L11.8938 5.80351L13.5908 4.10649L11.8938 2.40944L11.8936 2.40965L10.1966 0.712683L8.49955 2.40973L10.1966 4.10678L10.1968 4.10656L11.8938 5.80351L10.197 7.50026L8.50023 5.80348L6.80318 7.50053L8.50023 9.19758L10.197 7.5008L11.8938 9.19758L13.5906 7.5008L13.5907 7.50093L11.8939 9.19773L13.5909 10.8948L15.288 9.19773L15.2876 9.19733L16.9844 7.50053L15.2877 5.80388L15.288 5.80362ZM5.10554 5.80351L6.80259 7.50056L5.10554 9.19761L3.40883 7.5009L1.71211 9.19761L0.0150654 7.50056L1.71211 5.80351L3.40883 7.50022L5.10554 5.80351ZM11.8938 9.19789L13.5908 10.8949L11.8938 12.592L11.8935 12.5917L10.1966 14.2887L8.49955 12.5916L10.1966 10.8946L10.1969 10.8948L11.8938 9.19789Z" fill="#030303"/>
</svg>
