<svg width="123" height="49" viewBox="0 0 123 49" fill="none" xmlns="http://www.w3.org/2000/svg">
<path d="M47.6828 2.73256C46.6563 2.73127 45.6408 2.94742 44.7012 3.36721C45.1293 4.09229 45.5562 4.81902 45.9818 5.54742C47.1162 5.12594 48.3631 5.1401 49.4879 5.58724C49.8964 4.85304 50.3049 4.12008 50.7134 3.38836C49.7604 2.95426 48.7273 2.73072 47.6828 2.73256Z" fill="#199AD6"/>
<path d="M52.098 4.21216C51.6691 4.93309 51.2398 5.65319 50.8101 6.37246C51.7671 7.16507 52.3964 8.29346 52.5735 9.53452L55.0515 9.43248C54.9402 8.4026 54.6203 7.40723 54.1121 6.50887C53.6038 5.61051 52.9181 4.82857 52.098 4.21216Z" fill="#69C7B9"/>
<path d="M44.5064 6.41723L43.1681 4.29053C41.6732 5.45663 40.6719 7.15725 40.368 9.0464C40.0641 10.9356 40.4803 12.8713 41.5321 14.4599L43.45 12.8421C42.8427 11.8184 42.6153 10.608 42.809 9.42914C43.0027 8.25026 43.6046 7.18038 44.5064 6.41225V6.41723Z" fill="#D61B5E"/>
<path d="M52.5355 11.2107C52.3726 12.0668 51.9928 12.865 51.4335 13.5267C50.8743 14.1883 50.1549 14.6905 49.3462 14.9839C48.5376 15.2772 47.6676 15.3514 46.8221 15.1993C45.9766 15.0472 45.1847 14.674 44.5245 14.1164L42.6299 15.7652C43.6253 16.7068 44.8567 17.352 46.1891 17.6303C47.5216 17.9085 48.9038 17.8091 50.1843 17.3429C51.4649 16.8767 52.5944 16.0617 53.4492 14.9871C54.304 13.9125 54.8511 12.6198 55.0306 11.2505L52.5355 11.2107Z" fill="#BF9CC9"/>
<path d="M6.81495 17.8174C5.38767 17.8174 4.16626 17.5105 3.15074 16.8966C2.13233 16.2819 1.31841 15.3717 0.813727 14.2833C0.270427 13.155 -0.000815153 11.8102 1.84008e-06 10.2489C1.84008e-06 8.70169 0.271244 7.36353 0.813727 6.23443C1.3191 5.14648 2.13286 4.23653 3.15074 3.62116C4.16544 3.00808 5.38685 2.70154 6.81495 2.70154C7.63919 2.69688 8.4591 2.82284 9.2451 3.07486C9.96963 3.30227 10.6465 3.66384 11.2414 4.14133C11.3446 4.20527 11.4336 4.29027 11.5028 4.39095C11.572 4.49162 11.6199 4.60578 11.6434 4.7262C11.681 4.93238 11.6403 5.14538 11.5294 5.32228C11.4779 5.4065 11.4105 5.47948 11.3309 5.53696C11.2514 5.59443 11.1614 5.63525 11.0662 5.65702C10.8676 5.70514 10.6446 5.63877 10.3971 5.45792C9.42239 4.66398 8.24224 4.26701 6.85662 4.26701C5.22263 4.26701 3.97345 4.78967 3.10907 5.83498C2.24469 6.88028 1.81046 8.3516 1.80637 10.2489C1.80637 12.157 2.23856 13.6346 3.10294 14.6815C3.96732 15.7285 5.2165 16.2511 6.85049 16.2495C8.23938 16.2495 9.43342 15.845 10.4326 15.0362C10.6777 14.8694 10.902 14.806 11.1017 14.8483C11.1947 14.8654 11.2831 14.9022 11.3612 14.9562C11.4393 15.0102 11.5054 15.0803 11.5551 15.1619C11.658 15.3305 11.698 15.5309 11.6679 15.7268C11.6293 15.9545 11.5032 16.1573 11.3174 16.2905C10.7159 16.799 10.0241 17.1859 9.27941 17.4304C8.48355 17.6922 7.65152 17.8229 6.81495 17.8174Z" fill="white"/>
<path d="M24.3921 2.74243C23.8283 2.74243 23.5469 3.04234 23.5477 3.64214V9.41249H16.9864C16.7914 9.41249 16.6044 9.49116 16.4665 9.63118C16.3286 9.7712 16.2511 9.96112 16.2511 10.1591C16.2511 10.3572 16.3286 10.5471 16.4665 10.6871C16.6044 10.8271 16.7914 10.9058 16.9864 10.9058H23.5526V16.8852C23.5526 17.4842 23.8341 17.7837 24.397 17.7837C24.9599 17.7837 25.2409 17.4842 25.2401 16.8852V3.64214C25.2368 3.04234 24.9542 2.74243 24.3921 2.74243ZM13.9938 2.74243C13.4309 2.74243 13.1494 3.04234 13.1494 3.64214V16.8765C13.1494 17.4755 13.4309 17.775 13.9938 17.775C14.5428 17.775 14.8238 17.4896 14.8369 16.9188H14.7805V4.84798H14.8381V3.64214C14.8381 3.04234 14.5567 2.74243 13.9938 2.74243Z" fill="white"/>
<path d="M39.9781 16.604L34.2955 3.51647C34.2158 3.27963 34.0687 3.07216 33.8727 2.92039C33.7064 2.80362 33.5087 2.74151 33.3065 2.74244C32.8539 2.74244 32.5177 3.00045 32.2979 3.51647L26.6362 16.604C26.4842 16.9358 26.4703 17.2146 26.5945 17.4402C26.7187 17.6659 26.9454 17.7775 27.2747 17.775C27.6717 17.775 27.9805 17.517 28.2011 17.0009L29.0675 14.9389C29.3943 14.1185 29.7383 13.2851 30.0994 12.4389C30.3265 11.9105 30.5541 11.3903 30.782 10.8784L33.2857 4.89652H33.3274L36.472 12.4227H32.032C31.8573 12.4225 31.6888 12.4885 31.5594 12.6077C31.43 12.7269 31.349 12.8908 31.3323 13.0673V13.0823C31.3227 13.1814 31.3336 13.2815 31.3645 13.376C31.3953 13.4706 31.4453 13.5575 31.5112 13.6312C31.5771 13.705 31.6575 13.7639 31.7472 13.8041C31.8369 13.8444 31.9339 13.8651 32.032 13.865H37.0761L38.4144 17.0009C38.4887 17.2203 38.6149 17.4177 38.782 17.5759C38.9499 17.7147 39.1625 17.7857 39.3788 17.775C39.7056 17.775 39.9254 17.6634 40.0381 17.4402C40.1484 17.2175 40.1288 16.9387 39.9781 16.604Z" fill="white"/>
<path d="M61.6139 17.8173C60.6717 17.8235 59.7331 17.7004 58.8234 17.4514C58.0131 17.2367 57.2489 16.8713 56.5698 16.3738C56.4722 16.3143 56.3873 16.2356 56.32 16.1425C56.2527 16.0493 56.2043 15.9435 56.1776 15.8312C56.1354 15.6332 56.1609 15.4264 56.2499 15.2451C56.2895 15.16 56.3454 15.0837 56.4145 15.0209C56.4835 14.9581 56.5642 14.9099 56.6519 14.8792C56.83 14.817 57.0342 14.8622 57.2646 15.0149C57.8584 15.4632 58.5285 15.7964 59.2413 15.998C60.0154 16.2049 60.8134 16.3054 61.6139 16.2966C62.8492 16.2966 63.7654 16.0631 64.3626 15.596C64.6481 15.3843 64.8786 15.1054 65.0347 14.7834C65.1907 14.4613 65.2675 14.1056 65.2585 13.7468C65.2691 13.4683 65.2159 13.1911 65.1032 12.937C64.9905 12.6828 64.8213 12.4587 64.609 12.2821C64.1776 11.9204 63.4537 11.635 62.4374 11.426L60.2965 10.9867C59.0064 10.7079 58.042 10.2517 57.4031 9.61784C56.7642 8.98402 56.4456 8.13491 56.4472 7.07052C56.4299 6.25204 56.6638 5.44836 57.1163 4.77085C57.5859 4.09675 58.2308 3.56852 58.9791 3.24519C59.8505 2.86697 60.7913 2.68159 61.7389 2.70139C62.5591 2.69468 63.3753 2.81812 64.158 3.06724C64.8941 3.30485 65.5814 3.67679 66.1862 4.16482C66.3612 4.29271 66.4824 4.48287 66.5256 4.69743C66.5617 4.88738 66.5286 5.08418 66.4325 5.25119C66.3894 5.33105 66.3306 5.40107 66.2598 5.45694C66.189 5.5128 66.1076 5.55332 66.0207 5.57598C65.8426 5.62493 65.6298 5.57266 65.3822 5.41919C64.8715 5.00713 64.2897 4.69527 63.6666 4.49956C63.0333 4.31222 62.3764 4.21998 61.7168 4.22579C60.6318 4.22579 59.7671 4.48007 59.1224 4.98862C58.8131 5.22122 58.5636 5.52614 58.3951 5.87752C58.2266 6.22889 58.144 6.61636 58.1543 7.00706C58.1543 7.67572 58.3586 8.20543 58.7671 8.59618C59.1756 8.98692 59.8361 9.27231 60.7487 9.45233L62.8908 9.91277C64.2797 10.2056 65.3055 10.6482 65.968 11.2406C66.6306 11.8329 66.9635 12.6376 66.9668 13.6547C66.981 14.4309 66.7542 15.192 66.3185 15.83C65.8497 16.4857 65.2071 16.9927 64.4656 17.2921C63.6633 17.6422 62.7127 17.8173 61.6139 17.8173Z" fill="white"/>
<path d="M73.0403 17.8173C72.0985 17.8234 71.1603 17.7003 70.251 17.4514C69.4402 17.2369 68.6757 16.8715 67.9961 16.3738C67.8988 16.3141 67.8142 16.2355 67.7471 16.1423C67.6799 16.0492 67.6317 15.9434 67.6052 15.8312C67.5626 15.6333 67.5877 15.4266 67.6763 15.2451C67.7159 15.16 67.7718 15.0837 67.8409 15.0209C67.9099 14.9581 67.9906 14.9099 68.0782 14.8792C68.2572 14.817 68.4618 14.8618 68.691 15.0149C69.2848 15.4632 69.9549 15.7964 70.6677 15.998C71.4418 16.2049 72.2398 16.3054 73.0403 16.2966C74.2756 16.2966 75.1918 16.0631 75.789 15.596C76.0744 15.3843 76.305 15.1054 76.4611 14.7834C76.6171 14.4613 76.6939 14.1056 76.6849 13.7468C76.6954 13.4684 76.6424 13.1914 76.5299 12.9373C76.4174 12.6832 76.2486 12.4589 76.0366 12.2821C75.6044 11.9204 74.8801 11.635 73.8638 11.426L71.7229 10.9867C70.4328 10.7079 69.4684 10.2517 68.8295 9.61784C68.1906 8.98402 67.8716 8.1374 67.8724 7.07799C67.8551 6.25951 68.0889 5.45583 68.5415 4.77831C69.0103 4.10115 69.6558 3.5702 70.4055 3.2452C71.2765 2.86696 72.2169 2.68157 73.164 2.70139C73.9842 2.69469 74.8005 2.81813 75.5832 3.06724C76.3193 3.30485 77.0066 3.6768 77.6113 4.16482C77.7872 4.29193 77.9086 4.48245 77.9508 4.69743C77.9875 4.88737 77.9544 5.08438 77.8577 5.25119C77.8146 5.33105 77.7558 5.40107 77.6849 5.45694C77.6141 5.51281 77.5328 5.55332 77.4459 5.57598C77.2682 5.62452 77.055 5.57598 76.8086 5.41919C76.2979 5.00723 75.7161 4.69538 75.093 4.49957C74.4597 4.31213 73.8028 4.21989 73.1432 4.22579C72.0615 4.22579 71.1967 4.48048 70.5488 4.98986C70.2398 5.22267 69.9906 5.52766 69.8223 5.87902C69.654 6.23037 69.5715 6.61773 69.5819 7.0083C69.5819 7.67697 69.7862 8.20668 70.1947 8.59742C70.6032 8.98817 71.2633 9.27314 72.1751 9.45233L74.3172 9.91277C75.7061 10.2056 76.7318 10.6482 77.3944 11.2406C78.057 11.8329 78.3899 12.6376 78.3932 13.6547C78.4074 14.4309 78.1806 15.192 77.7449 15.83C77.2761 16.4857 76.6335 16.9927 75.892 17.2921C75.0897 17.6422 74.1391 17.8173 73.0403 17.8173Z" fill="white"/>
<path d="M11.713 46.0664L4.93056 38.6099C4.22068 37.8184 3.66512 37.1376 3.26389 36.5677C2.86265 35.982 2.57716 35.4279 2.40741 34.9054C2.23765 34.383 2.15278 33.8131 2.15278 33.1957C2.15278 32.1825 2.34568 31.3355 2.73148 30.6548C3.11728 29.9582 3.72685 29.4279 4.56018 29.0638C5.40895 28.6996 6.49691 28.5176 7.82407 28.5176C8.34876 28.5176 8.91975 28.5492 9.53704 28.6126C10.1543 28.6601 10.7022 28.7155 11.1806 28.7788V31.1535C10.8719 31.1218 10.4784 31.0822 10 31.0347C9.5216 30.9872 9.05093 30.9556 8.58796 30.9397C8.125 30.9081 7.74691 30.8922 7.4537 30.8922C6.41975 30.8922 5.70216 31.0981 5.30093 31.5097C4.89969 31.9213 4.69907 32.5149 4.69907 33.2907C4.69907 33.9397 4.84568 34.5413 5.13889 35.0954C5.44753 35.6495 5.92593 36.2827 6.57407 36.9952L14.838 46.0664H11.713ZM6.04167 46.5176C4.83796 46.5176 3.78086 46.2801 2.87037 45.8052C1.95988 45.3302 1.25 44.6891 0.740741 43.8817C0.246914 43.0585 0 42.1482 0 41.1508V40.8184C0 39.6627 0.308642 38.6416 0.925926 37.755C1.55864 36.8685 2.35339 36.1719 3.31018 35.6653L4.58333 37.3988C3.99691 37.7155 3.5108 38.1904 3.125 38.8236C2.75463 39.4411 2.56944 40.1376 2.56944 40.9134C2.56944 41.5941 2.71605 42.1798 3.00926 42.6706C3.3179 43.1614 3.74228 43.5334 4.28241 43.7867C4.82253 44.04 5.4321 44.1667 6.11111 44.1667C7.12963 44.1667 8.02469 43.8817 8.7963 43.3118C9.58333 42.726 10.1929 41.8474 10.625 40.6759C11.0571 39.5044 11.2731 38.0242 11.2731 36.2353H13.6806C13.6806 37.85 13.5031 39.2907 13.1481 40.5572C12.7932 41.8236 12.2762 42.9002 11.5972 43.7867C10.9336 44.6733 10.1312 45.354 9.18981 45.8289C8.24846 46.288 7.19907 46.5176 6.04167 46.5176ZM8.75 36.6152V34.478H15V36.6152H8.75Z" fill="white"/>
<path d="M37.3652 42.7877C37.3652 41.5712 37.8069 40.6111 38.6903 39.9073C39.5737 39.2035 40.7771 38.8523 42.3006 38.8537H44.8878V37.7915C44.8904 37.5906 44.8432 37.3921 44.7504 37.214C44.6575 37.0358 44.5218 36.8834 44.3556 36.7706C43.9274 36.4892 43.4204 36.3521 42.9088 36.3796C42.4452 36.3631 41.9849 36.4639 41.5707 36.6728C41.4098 36.753 41.2664 36.8644 41.1489 37.0005C41.0314 37.1366 40.9422 37.2947 40.8865 37.4657H37.7345C37.8135 36.9365 38.0022 36.4297 38.2884 35.9777C38.5755 35.5308 38.9493 35.146 39.3876 34.8459C39.8653 34.5213 40.3939 34.279 40.9516 34.1291C41.5888 33.9568 42.2466 33.8727 42.9067 33.8793C43.6304 33.871 44.3516 33.9661 45.0485 34.1617C45.644 34.3292 46.2046 34.6022 46.7038 34.9676C47.1462 35.2925 47.51 35.7127 47.7682 36.1971C48.0262 36.6931 48.1569 37.2455 48.1483 37.8045V46.0591H45.0398V43.6696H44.8487C44.8092 44.0526 44.6865 44.4224 44.4891 44.7529C44.2917 45.0835 44.0245 45.367 43.706 45.5834C43.0471 46.0454 42.2101 46.2771 41.1949 46.2785C40.0219 46.2785 39.0907 45.9664 38.4014 45.3423C37.7121 44.7181 37.3667 43.8666 37.3652 42.7877ZM42.5178 43.7674C43.1248 43.7934 43.7239 43.6219 44.2252 43.2786C44.4305 43.1411 44.5984 42.9548 44.714 42.7365C44.8297 42.5181 44.8894 42.2745 44.8878 42.0274V40.811H42.3006C41.862 40.7882 41.4298 40.923 41.082 41.1911C40.9272 41.3246 40.8055 41.4921 40.7263 41.6806C40.6472 41.869 40.6128 42.0732 40.6258 42.2772C40.6167 42.4858 40.6561 42.6936 40.7409 42.8843C40.8257 43.075 40.9536 43.2435 41.1145 43.3764C41.5222 43.6674 42.018 43.8086 42.5178 43.7761V43.7674Z" fill="white"/>
<path d="M56.7592 29.7235V41.9186C56.7418 42.0798 56.7607 42.2429 56.8145 42.3959C56.8683 42.5489 56.9558 42.688 57.0703 42.8027C57.1849 42.9175 57.3238 43.0052 57.4767 43.0593C57.6296 43.1134 57.7927 43.1326 57.954 43.1155H61.5425V46.0502H57.6325C56.3422 46.0502 55.3284 45.6838 54.5913 44.951C53.8542 44.2182 53.4878 43.2045 53.4922 41.9099V32.6582H49.7993V29.7235H56.7592Z" fill="white"/>
<path d="M69.2599 29.7235V41.9186C69.2424 42.08 69.2613 42.2433 69.3152 42.3965C69.3692 42.5497 69.4568 42.6888 69.5716 42.8037C69.6865 42.9185 69.8256 43.0061 69.9788 43.0601C70.132 43.1141 70.2953 43.133 70.4568 43.1155H74.0432V46.0502H70.1331C68.8428 46.0502 67.8291 45.6838 67.092 44.951C66.3548 44.2182 65.9928 43.2045 66.0058 41.9099V32.6582H62.313V29.7235H69.2599Z" fill="white"/>
<path d="M85.5674 43.1026H89.8141V37.0355H86.1213V34.0986H92.8553V43.1026H96.2245V46.059H85.5804L85.5674 43.1026ZM89.1625 30.5991C89.1533 30.3932 89.1885 30.1876 89.2657 29.9965C89.3429 29.8054 89.4603 29.633 89.6099 29.4913C89.9358 29.2048 90.3605 29.0567 90.7938 29.0785H91.4455C91.8794 29.0571 92.3047 29.2051 92.6316 29.4913C92.7808 29.6332 92.8978 29.8056 92.9746 29.9968C93.0515 30.1879 93.0863 30.3933 93.0769 30.5991C93.0855 30.8059 93.0495 31.0121 92.9711 31.2037C92.8928 31.3953 92.774 31.5677 92.6229 31.7091C92.2889 31.9979 91.8559 32.1458 91.4151 32.1219H90.7851C90.3504 32.1448 89.9238 31.9967 89.5969 31.7091C89.4495 31.5658 89.3344 31.3926 89.2595 31.2012C89.1845 31.0097 89.1514 30.8044 89.1625 30.5991Z" fill="white"/>
<path d="M98.0908 46.0589V34.0985H101.178V36.1643H101.395C101.43 35.8325 101.533 35.5115 101.698 35.2214C101.863 34.9313 102.086 34.6784 102.353 34.4786C102.889 34.0789 103.592 33.8798 104.462 33.8812C105.679 33.8812 106.639 34.2795 107.342 35.076C108.046 35.8725 108.397 36.9586 108.396 38.3344V46.0524H105.138V38.6602C105.153 38.3989 105.116 38.1371 105.028 37.8905C104.94 37.6438 104.804 37.4173 104.627 37.2243C104.246 36.8882 103.755 36.7027 103.247 36.7027C102.738 36.7027 102.248 36.8882 101.866 37.2243C101.689 37.417 101.551 37.6433 101.463 37.89C101.375 38.1366 101.337 38.3986 101.351 38.6602V46.0459L98.0908 46.0589Z" fill="white"/>
<path d="M25.5893 37.4959C26.8637 37.4959 27.4575 36.9021 27.3706 35.7146L27.1534 32.2998C27.117 31.7613 27.1909 31.2209 27.3706 30.7119C27.5385 30.2626 27.811 29.8598 28.1656 29.5367C28.5366 29.2012 28.9729 28.946 29.4473 28.7873C29.9906 28.6067 30.5604 28.5185 31.1329 28.5266H32.6122V31.0182H31.5022C31.0654 30.9905 30.6334 31.1217 30.2857 31.3875C29.9947 31.633 29.8643 32.0261 29.8926 32.5605L30.1098 35.9753C30.1485 36.3305 30.1049 36.6897 29.9825 37.0254C29.8601 37.361 29.6621 37.6639 29.4038 37.9108C28.8363 38.4095 28.1043 38.6803 27.3489 38.6711V38.7797C28.2178 38.8086 28.9064 39.0729 29.4147 39.5726C29.6693 39.8285 29.8638 40.1379 29.984 40.4783C30.1042 40.8187 30.1472 41.1816 30.1098 41.5406L29.8926 44.9337C29.868 45.1376 29.8915 45.3444 29.9613 45.5375C30.0311 45.7307 30.1452 45.9048 30.2944 46.0459C30.6303 46.3288 31.0616 46.4726 31.5 46.4477H32.6101V48.9697H31.1329C30.5632 48.9768 29.9965 48.8849 29.4581 48.6982C28.9746 48.5349 28.5307 48.2722 28.1548 47.9271C27.7957 47.5884 27.5199 47.1713 27.3489 46.7084C27.1597 46.195 27.0855 45.6462 27.1316 45.1009L27.3489 41.7948C27.3923 41.2025 27.2728 40.7535 26.9904 40.448C26.708 40.1439 26.2323 39.9896 25.5676 39.9896H23V37.4959H25.5893Z" fill="#06F395"/>
<path d="M113.395 48.9763V46.4544H114.502C114.943 46.4809 115.379 46.3501 115.732 46.0851C116.029 45.8396 116.166 45.4551 116.134 44.9338L115.917 41.519C115.857 40.7066 116.085 40.0614 116.601 39.5835C117.168 39.0848 117.9 38.814 118.656 38.8232V38.7146C117.891 38.7268 117.15 38.4427 116.59 37.9217C116.337 37.6657 116.144 37.3556 116.028 37.0148C115.911 36.674 115.873 36.3113 115.917 35.9537L116.134 32.5606C116.161 32.3514 116.137 32.1388 116.065 31.9405C115.993 31.7422 115.875 31.5638 115.721 31.4202C115.379 31.1385 114.945 30.9952 114.502 31.0183H113.395V28.518H114.896C115.461 28.5102 116.024 28.6021 116.557 28.7896C117.032 28.9564 117.468 29.2188 117.837 29.5607C118.193 29.897 118.468 30.3101 118.641 30.7685C118.828 31.2786 118.898 31.8242 118.847 32.3651L118.63 35.693C118.586 36.286 118.706 36.7335 118.988 37.0289C119.27 37.3244 119.746 37.4634 120.413 37.4634H123V39.9745H120.417C119.142 39.9745 118.547 40.5762 118.634 41.7797L118.851 45.1727C118.887 45.707 118.814 46.2431 118.634 46.7476C118.469 47.2048 118.202 47.618 117.852 47.9554C117.485 48.2998 117.047 48.5593 116.568 48.7157C116.029 48.8947 115.464 48.9827 114.896 48.9763H113.395Z" fill="#06F395"/>
</svg>
