<svg xmlns="http://www.w3.org/2000/svg" width="16" height="16" viewBox="0 0 16 16" fill="none">
<path d="M12.6667 2.66634H12V1.33301H10.6667V2.66634H5.33333V1.33301H4V2.66634H3.33333C2.6 2.66634 2 3.26634 2 3.99967V13.333C2 14.0663 2.6 14.6663 3.33333 14.6663H12.6667C13.4 14.6663 14 14.0663 14 13.333V3.99967C14 3.26634 13.4 2.66634 12.6667 2.66634ZM12.6667 13.333H3.33333V6.66634H12.6667V13.333ZM3.33333 5.33301V3.99967H12.6667V5.33301H3.33333ZM7.04 12.3063L10.9933 8.35301L10.2867 7.64634L7.04 10.893L5.63333 9.48634L4.92667 10.193L7.04 12.3063Z" fill="black"/>
</svg>