<svg xmlns="http://www.w3.org/2000/svg" width="24" height="25" viewBox="0 0 24 25" fill="none">
  <path d="M15.7549 14.7549H14.9649L14.6849 14.4849C15.6649 13.3449 16.2549 11.8649 16.2549 10.2549C16.2549 6.66488 13.3449 3.75488 9.75488 3.75488C6.16488 3.75488 3.25488 6.66488 3.25488 10.2549C3.25488 13.8449 6.16488 16.7549 9.75488 16.7549C11.3649 16.7549 12.8449 16.1649 13.9849 15.1849L14.2549 15.4649V16.2549L19.2549 21.2449L20.7449 19.7549L15.7549 14.7549ZM9.75488 14.7549C7.26488 14.7549 5.25488 12.7449 5.25488 10.2549C5.25488 7.76488 7.26488 5.75488 9.75488 5.75488C12.2449 5.75488 14.2549 7.76488 14.2549 10.2549C14.2549 12.7449 12.2449 14.7549 9.75488 14.7549Z" fill="#787878"/>
</svg>