<svg width="20" height="14" viewBox="0 0 20 14" fill="none" xmlns="http://www.w3.org/2000/svg">
<path d="M7 7C8.93 7 10.5 5.43 10.5 3.5C10.5 1.57 8.93 0 7 0C5.07 0 3.5 1.57 3.5 3.5C3.5 5.43 5.07 7 7 7ZM7 2C7.83 2 8.5 2.67 8.5 3.5C8.5 4.33 7.83 5 7 5C6.17 5 5.5 4.33 5.5 3.5C5.5 2.67 6.17 2 7 2ZM7.05 12H2.77C3.76 11.5 5.47 11 7 11C7.11 11 7.23 11.01 7.34 11.01C7.68 10.28 8.27 9.68 8.98 9.2C8.25 9.07 7.56 9 7 9C4.66 9 0 10.17 0 12.5V14H7V12.5C7 12.33 7.02 12.16 7.05 12ZM14.5 9.5C12.66 9.5 9 10.51 9 12.5V14H20V12.5C20 10.51 16.34 9.5 14.5 9.5ZM15.71 7.68C16.47 7.25 17 6.44 17 5.5C17 4.12 15.88 3 14.5 3C13.12 3 12 4.12 12 5.5C12 6.44 12.53 7.25 13.29 7.68C13.65 7.88 14.06 8 14.5 8C14.94 8 15.35 7.88 15.71 7.68Z" fill="#030303"/>
</svg>
