<svg width="48" height="48" viewBox="0 0 48 48" fill="none" xmlns="http://www.w3.org/2000/svg">
<path d="M34 17.907C33.2504 18.2344 32.4565 18.449 31.644 18.544C32.4968 18.0432 33.138 17.2491 33.448 16.31C32.64 16.7803 31.7587 17.1116 30.841 17.29C30.4545 16.8852 29.9897 16.5634 29.4748 16.3442C28.9598 16.125 28.4056 16.0129 27.846 16.015C25.58 16.015 23.743 17.825 23.743 20.055C23.743 20.371 23.779 20.68 23.849 20.975C22.2236 20.8977 20.6321 20.4824 19.1762 19.7556C17.7202 19.0289 16.4318 18.0066 15.393 16.754C15.0288 17.3684 14.8374 18.0698 14.839 18.784C14.8397 19.4519 15.0068 20.1092 15.3253 20.6964C15.6438 21.2835 16.1035 21.7821 16.663 22.147C16.0125 22.126 15.376 21.9523 14.805 21.64V21.69C14.805 23.648 16.22 25.281 18.095 25.653C17.7426 25.7465 17.3796 25.7939 17.015 25.794C16.75 25.794 16.493 25.769 16.242 25.719C16.5101 26.5269 17.0231 27.2313 17.7098 27.7343C18.3965 28.2373 19.2228 28.514 20.074 28.526C18.6141 29.6505 16.8218 30.258 14.979 30.253C14.647 30.253 14.321 30.233 14 30.197C15.8813 31.3877 18.0626 32.0183 20.289 32.015C27.836 32.015 31.962 25.858 31.962 20.519L31.948 19.996C32.7529 19.4297 33.4481 18.7218 34 17.907Z" fill="white"/>
<rect x="0.5" y="0.5" width="47" height="47" rx="23.5" stroke="#444444"/>
</svg>
