<svg width="478" height="165" viewBox="0 0 478 165" fill="none" xmlns="http://www.w3.org/2000/svg">
<g clip-path="url(#clip0_4343_135)">
<path d="M244.367 156.244H136.405C134.709 156.248 133.083 156.925 131.885 158.125C130.687 159.326 130.015 160.953 130.015 162.649C130.015 164.346 130.687 165.973 131.885 167.173C133.083 168.374 134.709 169.051 136.405 169.055H244.367C246.066 169.055 247.695 168.38 248.896 167.179C250.098 165.977 250.772 164.348 250.772 162.649C250.772 160.951 250.098 159.321 248.896 158.12C247.695 156.919 246.066 156.244 244.367 156.244Z" fill="#00BF73" stroke="#222D33" stroke-width="0.75" stroke-linecap="round" stroke-linejoin="round"/>
<path d="M167.953 162.709C167.953 161.01 168.628 159.381 169.829 158.18C171.03 156.979 172.659 156.304 174.358 156.304H136.405C134.707 156.304 133.077 156.979 131.876 158.18C130.675 159.381 130 161.01 130 162.709C130 164.408 130.675 166.037 131.876 167.238C133.077 168.439 134.707 169.114 136.405 169.114H174.343C172.647 169.11 171.022 168.434 169.824 167.233C168.626 166.032 167.953 164.405 167.953 162.709Z" fill="#06F395"/>
<path d="M244.367 156.244H136.405C134.709 156.248 133.083 156.925 131.885 158.125C130.687 159.326 130.015 160.953 130.015 162.649C130.015 164.346 130.687 165.973 131.885 167.173C133.083 168.374 134.709 169.051 136.405 169.055H244.367C246.066 169.055 247.695 168.38 248.896 167.179C250.098 165.977 250.772 164.348 250.772 162.649C250.772 160.951 250.098 159.321 248.896 158.12C247.695 156.919 246.066 156.244 244.367 156.244Z" stroke="#222D33" stroke-width="0.75" stroke-linecap="round" stroke-linejoin="round"/>
<path d="M186.584 29.709L142.989 156.244H237.782L194.187 29.709C193.912 28.9201 193.398 28.2364 192.717 27.7526C192.036 27.2687 191.221 27.0088 190.385 27.0088C189.55 27.0088 188.735 27.2687 188.054 27.7526C187.373 28.2364 186.859 28.9201 186.584 29.709Z" fill="#BAC0C3"/>
<path d="M189.278 27.1497L188.844 27.3143H188.709C188.584 27.3674 188.463 27.4325 188.35 27.5088L188.186 27.5986L187.781 27.9279C187.757 27.9215 187.731 27.9215 187.707 27.9279C187.566 28.0567 187.436 28.1968 187.318 28.3469C187.218 28.4966 187.113 28.6612 187.003 28.8408C186.891 29.0417 186.795 29.252 186.719 29.4693L142.989 156.243H174.417L190.4 27C190.022 27.0034 189.645 27.0537 189.278 27.1497Z" fill="#EDEDED"/>
<path d="M186.584 29.709L142.989 156.244H237.782L194.187 29.709C193.912 28.9201 193.398 28.2364 192.717 27.7526C192.036 27.2687 191.221 27.0088 190.385 27.0088C189.55 27.0088 188.735 27.2687 188.054 27.7526C187.373 28.2364 186.859 28.9201 186.584 29.709Z" stroke="#222D33" stroke-width="0.75" stroke-linecap="round" stroke-linejoin="round"/>
<path d="M142.989 156.303H190.385H237.782L228.084 128.123H152.687L142.989 156.303Z" fill="#00BF73" stroke="#222D33" stroke-width="0.75" stroke-linecap="round" stroke-linejoin="round"/>
<path d="M152.687 128.123L149.993 135.935L142.989 156.303H174.342L177.844 128.123H152.687Z" fill="#06F395"/>
<path d="M142.989 156.303H190.385H237.782L228.084 128.123H152.687L142.989 156.303Z" stroke="#222D33" stroke-width="0.75" stroke-linecap="round" stroke-linejoin="round"/>
<path d="M161.128 103.654H219.659L209.317 73.6328H171.454L161.128 103.654Z" fill="#00BF73"/>
<path d="M184.609 73.6328H171.454L169.239 80.068L161.128 103.654H180.883L184.609 73.6328Z" fill="#06F395"/>
<path d="M161.128 103.654H219.659L209.317 73.6328H171.454L161.128 103.654Z" stroke="#222D33" stroke-width="0.75" stroke-linecap="round" stroke-linejoin="round"/>
<path d="M186.585 29.7088L179.896 49.1642H200.847L194.143 29.7088C193.859 28.9353 193.344 28.2676 192.668 27.7959C191.992 27.3242 191.188 27.0713 190.364 27.0713C189.54 27.0713 188.736 27.3242 188.06 27.7959C187.384 28.2676 186.869 28.9353 186.585 29.7088Z" fill="#00BF73"/>
<path d="M187.648 49.1641L190.402 27C190.028 27.0046 189.656 27.0549 189.295 27.1497L188.861 27.3143H188.726C188.6 27.3674 188.48 27.4325 188.367 27.5088L188.202 27.5986L187.798 27.9279C187.774 27.9215 187.748 27.9215 187.723 27.9279C187.582 28.0567 187.452 28.1968 187.334 28.3469C187.234 28.4966 187.13 28.6612 187.02 28.8408C186.907 29.0417 186.812 29.252 186.736 29.4693L180.046 48.9247L187.648 49.1641Z" fill="#06F395"/>
<path d="M186.585 29.7088L179.896 49.1642H200.847L194.143 29.7088C193.859 28.9353 193.344 28.2676 192.668 27.7959C191.992 27.3242 191.188 27.0713 190.364 27.0713C189.54 27.0713 188.736 27.3242 188.06 27.7959C187.384 28.2676 186.869 28.9353 186.585 29.7088Z" stroke="#222D33" stroke-width="0.75" stroke-linecap="round" stroke-linejoin="round"/>
<path d="M278.243 127.292V203.32C278.24 204.515 277.764 205.659 276.918 206.503C276.073 207.347 274.927 207.82 273.732 207.82C272.538 207.82 271.392 207.347 270.547 206.503C269.701 205.659 269.225 204.515 269.222 203.32V127.292C269.222 126.095 269.697 124.948 270.543 124.102C271.389 123.256 272.536 122.781 273.732 122.781C274.929 122.781 276.076 123.256 276.922 124.102C277.768 124.948 278.243 126.095 278.243 127.292Z" fill="#00BF73" stroke="#222D33" stroke-width="0.75" stroke-linecap="round" stroke-linejoin="round"/>
<path d="M278.243 127.292V203.32C278.24 204.515 277.764 205.659 276.918 206.503C276.073 207.347 274.927 207.82 273.732 207.82C272.538 207.82 271.392 207.347 270.547 206.503C269.701 205.659 269.225 204.515 269.222 203.32V127.292C269.222 126.095 269.697 124.948 270.543 124.102C271.389 123.256 272.536 122.781 273.732 122.781C274.929 122.781 276.076 123.256 276.922 124.102C277.768 124.948 278.243 126.095 278.243 127.292Z" stroke="#222D33" stroke-width="0.75" stroke-linecap="round" stroke-linejoin="round"/>
<path d="M367.351 167.982L278.244 198.683V131.928L367.351 162.629C367.907 162.822 368.388 163.184 368.729 163.664C369.07 164.143 369.253 164.717 369.253 165.306C369.253 165.894 369.07 166.468 368.729 166.947C368.388 167.427 367.907 167.789 367.351 167.982Z" fill="#BAC0C3"/>
<path d="M367.351 167.982L278.244 198.683V131.928L367.351 162.629C367.907 162.822 368.388 163.184 368.729 163.664C369.07 164.143 369.253 164.717 369.253 165.306C369.253 165.894 369.07 166.468 368.729 166.947C368.388 167.427 367.907 167.789 367.351 167.982Z" stroke="#222D33" stroke-width="0.75" stroke-linecap="round" stroke-linejoin="round"/>
<path d="M278.201 198.683V165.306V131.928L298.046 138.758V191.853L278.201 198.683Z" fill="#00BF73" stroke="#222D33" stroke-width="0.75" stroke-linecap="round" stroke-linejoin="round"/>
<path d="M278.201 198.683V165.306V131.928L298.046 138.758V191.853L278.201 198.683Z" stroke="#222D33" stroke-width="0.75" stroke-linecap="round" stroke-linejoin="round"/>
<path d="M315.278 185.909V144.691L336.419 151.974V178.637L315.278 185.909Z" fill="#00BF73"/>
<path d="M315.278 185.909V144.691L336.419 151.974V178.637L315.278 185.909Z" stroke="#222D33" stroke-width="0.75" stroke-linecap="round" stroke-linejoin="round"/>
<path d="M367.351 167.982L353.65 172.693V157.939L367.351 162.66C367.895 162.86 368.366 163.223 368.698 163.699C369.03 164.175 369.208 164.741 369.208 165.321C369.208 165.902 369.03 166.468 368.698 166.944C368.366 167.42 367.895 167.782 367.351 167.982Z" fill="#00BF73"/>
<path d="M367.351 167.982L353.65 172.693V157.939L367.351 162.66C367.895 162.86 368.366 163.223 368.698 163.699C369.03 164.175 369.208 164.741 369.208 165.321C369.208 165.902 369.03 166.468 368.698 166.944C368.366 167.42 367.895 167.782 367.351 167.982Z" stroke="#222D33" stroke-width="0.75" stroke-linecap="round" stroke-linejoin="round"/>
<mask id="path-28-inside-2_4343_135" fill="white">
<rect x="69" y="65" width="6" height="16" rx="1"/>
</mask>
<rect x="69" y="65" width="6" height="16" rx="1" stroke="#222D33" stroke-width="2.4" mask="url(#path-28-inside-2_4343_135)"/>
<mask id="path-29-inside-3_4343_135" fill="white">
<rect x="330" y="118" width="12" height="5" rx="1"/>
</mask>
<rect x="330" y="118" width="12" height="5" rx="1" stroke="#222D33" stroke-width="2.4" mask="url(#path-29-inside-3_4343_135)"/>
<path d="M310.704 70.8136C310.152 70.8136 309.704 71.2614 309.704 71.8136V73.6066C309.704 73.9121 309.456 74.1596 309.151 74.1596C308.846 74.1596 308.598 73.9121 308.598 73.6066V71.8136C308.598 71.2614 308.15 70.8136 307.598 70.8136H305.84C305.538 70.8136 305.294 70.5692 305.294 70.2676C305.294 69.9661 305.538 69.7216 305.84 69.7216H307.598C308.15 69.7216 308.598 69.2739 308.598 68.7216V66.9426C308.598 66.6372 308.846 66.3896 309.151 66.3896C309.456 66.3896 309.704 66.6372 309.704 66.9426V68.7216C309.704 69.2739 310.152 69.7216 310.704 69.7216H312.434C312.735 69.7216 312.98 69.9661 312.98 70.2676C312.98 70.5692 312.735 70.8136 312.434 70.8136H310.704Z" fill="#222D33"/>
<path d="M127.41 112.424C126.858 112.424 126.41 112.872 126.41 113.424V115.217C126.41 115.522 126.162 115.77 125.857 115.77C125.552 115.77 125.304 115.522 125.304 115.217V113.424C125.304 112.872 124.856 112.424 124.304 112.424H122.546C122.244 112.424 122 112.18 122 111.878C122 111.576 122.244 111.332 122.546 111.332H124.304C124.856 111.332 125.304 110.884 125.304 110.332V108.553C125.304 108.248 125.552 108 125.857 108C126.162 108 126.41 108.248 126.41 108.553V110.332C126.41 110.884 126.858 111.332 127.41 111.332H129.14C129.442 111.332 129.686 111.576 129.686 111.878C129.686 112.18 129.442 112.424 129.14 112.424H127.41Z" fill="#222D33"/>
</g>
<path d="M478 164H0V166H478V164Z" fill="#222D33" mask="url(#path-1-inside-1_4343_135)"/>
<defs>
<clipPath id="clip0_4343_135">
<path d="M0 0H478V165H0V0Z" fill="white"/>
</clipPath>
</defs>
</svg>
