<svg width="299" height="176" viewBox="0 0 299 176" fill="none" xmlns="http://www.w3.org/2000/svg">
<path d="M197.744 100.546C197.397 100.644 197.019 100.531 196.891 100.09C196.702 99.4433 196.488 98.8324 196.299 98.1857C194.042 94.4598 191.918 90.615 189.662 86.8891C186.925 82.3863 184.317 77.7345 182.441 72.7549C182.202 72.7699 181.979 72.6888 181.791 72.4456C176.821 66.1379 169.077 62.5707 165.564 54.9569C165.244 54.2423 166.203 53.6223 166.617 54.1635C166.716 54.0203 166.814 53.877 166.981 53.7828C170.937 51.0935 175.328 49.2829 179.696 47.5081C184.371 45.5807 188.889 43.2177 193.411 40.8849C202.823 36.0553 212.192 31.1409 221.733 26.5659C224.344 25.3167 226.983 24.0618 229.598 22.8427C229.438 22.7804 229.277 22.7181 229.147 22.6502C228.472 22.3767 228.84 21.436 229.526 21.5833C230.089 21.7229 230.657 21.8927 231.201 22.0984C231.484 21.9816 231.763 21.8346 232.046 21.7178C231.376 21.4744 230.731 21.1952 230.102 20.8199C229.637 20.5369 230.037 19.8074 230.542 19.9584C231.523 20.2659 232.513 20.6338 233.507 21.0319C238.933 18.4938 244.362 15.9859 249.792 13.478C254.264 11.4035 258.679 9.15361 263.094 6.90372C267.176 4.84228 271.552 1.94762 276.155 1.71129C276.272 1.68869 276.315 1.77354 276.358 1.85839C276.533 1.8245 276.689 1.85659 276.795 1.96031C277.068 1.96981 277.285 2.20742 277.189 2.56749C275.104 10.2062 270.708 17.1109 267.89 24.4874C264.793 32.6009 261.658 40.6597 258.717 48.8054C255.92 56.5193 253.172 64.3482 250.846 72.1886C249.638 76.3039 248.854 80.4306 248.112 84.6422C247.478 88.1808 247.243 91.7665 245.954 95.1522C245.958 95.1824 245.929 95.188 245.934 95.2182C246.305 95.6745 245.704 96.4737 245.108 96.1229C241.446 94.0349 237.256 93.2288 233.199 92.3039C228.768 91.296 224.413 89.994 220.022 88.8541C216.636 87.9859 213.251 87.1178 209.89 86.2138C208.465 88.9113 206.43 91.1675 204.594 93.5406C202.857 95.7705 201.889 98.5039 199.669 100.33C199.561 100.413 199.478 100.46 199.365 100.513C198.996 101.05 198.172 101.178 197.744 100.546ZM190.686 85.5112C191.719 87.1441 192.81 88.7658 193.906 90.4176C192.972 87.4612 192.009 84.5105 190.987 81.571C190.03 81.4143 190.002 80.0531 190.735 79.7252C190.829 79.5518 190.982 79.3671 191.177 79.2672C194.876 77.0624 198.094 73.6772 201.114 70.5786C204.625 66.9503 208.238 63.3956 211.928 59.9502C218.989 53.3384 226.589 47.4922 233.983 41.2821C241.352 35.1078 248.35 28.4771 255.285 21.8276C261.381 15.9923 267.286 9.69697 273.666 4.14832C271.062 5.83121 269.031 7.71409 266.725 9.77412C263.777 12.3619 260.22 14.5083 257.225 16.981C249.13 23.7301 240.887 30.2907 232.591 36.7061C224.51 42.9556 216.387 49.1203 208.225 55.2303C200.278 61.1745 192.19 67.177 183.596 72.035C183.484 72.0878 183.371 72.1406 183.283 72.1575C183.259 72.1933 183.263 72.2235 183.239 72.2593C185.385 76.8449 187.977 81.1894 190.686 85.5112ZM263.016 8.56466C258.683 10.9541 254.273 13.2341 249.81 15.369C245.152 17.6037 240.518 19.8027 235.86 22.0374C236.408 22.2732 236.927 22.5147 237.45 22.7863C237.838 22.9598 237.638 23.6196 237.221 23.4517C236.416 23.1103 235.566 22.8706 234.711 22.6008C234.315 22.7704 233.954 22.9645 233.558 23.134C234.629 23.6415 235.725 24.1131 236.853 24.3924C237.197 24.4811 237.08 25.0938 236.711 25.0409C235.169 24.8105 233.596 24.3689 232.096 23.8199C228.67 25.4441 225.249 27.0985 221.827 28.7529C212.544 33.2469 203.434 38.0803 194.281 42.8288C189.787 45.156 185.274 47.5492 180.599 49.4766C176.236 51.2815 171.845 53.0922 167.888 55.7814C167.781 55.8644 167.693 55.8813 167.58 55.9341C171.322 61.8889 177.905 65.1522 182.475 70.419C182.554 70.3418 182.603 70.2701 182.716 70.2174C190.87 65.0406 198.818 59.4999 206.65 53.7952C205.832 53.7667 205.015 53.7382 204.202 53.7398C202.123 53.7374 199.964 53.9989 197.903 53.7137C197.718 53.6872 197.764 53.3988 197.944 53.3951C201.079 53.411 204.259 53.3251 207.38 53.2505C208.193 52.6587 208.977 52.0726 209.761 51.4865C208.373 51.4748 207.002 51.367 205.624 51.4156C203.676 51.4811 201.777 51.475 199.862 51.1615C199.736 51.1237 199.767 50.9315 199.888 50.939C201.785 51.1318 203.656 50.957 205.57 50.867C207.245 50.792 208.889 50.9094 210.574 50.8947C211.142 50.4745 211.71 50.0542 212.279 49.6339C208.968 49.6519 205.684 49.4474 202.398 49.4296C202.306 49.4163 202.312 49.2599 202.4 49.2429C205.975 48.9875 209.543 49.0751 213.116 49.0063C213.792 48.5031 214.498 47.9943 215.169 47.4609C211.716 47.7239 208.099 47.7079 204.715 47.2432C204.559 47.2111 204.585 46.9887 204.765 46.985C208.538 47.0331 212.298 46.8041 216.036 46.8277C216.766 46.283 217.525 45.7327 218.251 45.1579C214.851 45.3795 211.259 45.3276 207.913 44.9176C207.821 44.9044 207.832 44.7781 207.919 44.7611C211.609 44.2663 215.427 44.6161 219.142 44.4888C219.628 44.1157 220.142 43.7369 220.627 43.3637C217.434 43.3591 214.251 42.6381 211.098 43.0916C210.893 43.1311 210.842 42.7993 211.076 42.7541C212.719 42.468 214.35 42.4948 215.99 42.582C217.751 42.6767 219.543 42.5791 221.265 42.8058C221.294 42.8002 221.328 42.8247 221.328 42.8247C221.896 42.4044 222.46 41.954 223.057 41.5281C220.215 41.4557 217.385 41.0703 214.536 41.1544C214.327 41.1638 214.276 40.8319 214.515 40.8169C217.642 40.5859 220.785 40.8488 223.895 40.9005C224.459 40.45 225.056 40.0241 225.62 39.5737C223.073 39.6616 220.522 39.7194 217.987 39.4944C217.681 39.4603 217.763 39.0098 218.064 39.0136C220.871 39.2482 223.638 39.0245 226.457 38.9461C226.918 38.6088 227.374 38.2412 227.863 37.8982C225.677 37.9787 223.501 37.9329 221.335 37.9474C221.062 37.9379 221.027 37.5099 221.3 37.5194C223.734 37.4843 226.168 37.4491 228.618 37.3178C229.025 37.0219 229.427 36.6958 229.833 36.3999C228.036 36.4673 226.246 36.3783 224.469 36.3797C224.259 36.389 224.292 36.0101 224.472 36.0064C226.483 35.9598 228.558 35.7454 230.588 35.8195C231.097 35.4105 231.641 35.026 232.151 34.6171C230.48 34.7222 228.773 34.586 227.093 34.6308C226.883 34.6402 226.833 34.3083 227.071 34.2933C229.015 34.1977 230.967 34.1624 232.935 34.0309C233.096 33.9066 233.258 33.7822 233.42 33.6578C233.714 33.4146 234.042 33.196 234.336 32.9529C233.294 33.0299 232.237 33.0165 231.195 33.0935C230.986 33.1028 230.935 32.771 231.174 32.756C232.504 32.5923 233.839 32.4588 235.178 32.3555C235.473 32.1124 235.771 31.8994 236.095 31.6506C235.525 31.6675 234.922 31.6597 234.338 31.5861C234.032 31.5521 234.109 31.0713 234.415 31.1053C235.242 31.1942 236.046 31.1322 236.879 31.0645C237.231 30.8101 237.579 30.5255 237.932 30.2711C237.873 30.2824 237.81 30.2635 237.752 30.2748C237.362 30.2879 236.943 30.3066 236.559 30.3499C236.291 30.3706 236.231 29.9784 236.523 29.9219C237.201 29.8222 238.011 29.6037 238.716 29.685C245.213 24.7038 251.667 19.6378 258.049 14.4926C263.333 10.2427 270.083 4.7469 275.472 2.37096C271.022 3.60277 266.958 6.37498 263.016 8.56466ZM219.828 86.997C224.447 88.2482 229.08 89.5899 233.694 90.8109C237.269 91.7356 240.869 92.6245 244.165 94.2864C245.401 90.9422 245.665 87.3507 246.278 83.8782C246.978 79.9852 247.751 76.1714 248.829 72.3917C251.092 64.5324 253.937 56.7469 256.738 49.0631C259.68 40.9175 262.907 32.8719 266.072 24.8074C268.843 17.7194 272.459 11.0275 275.551 4.06399C269.356 10.6326 262.742 16.8166 256.326 23.1174C249.286 30.0667 242.106 36.8877 234.555 43.2524C227.196 49.487 219.663 55.3823 212.607 62.0242C208.921 65.4997 205.342 69.079 201.835 72.7374C199.37 75.3253 196.733 77.9772 193.799 80.0654C197.61 80.7583 201.364 81.866 205.088 82.9793C210.002 84.3908 214.923 85.6458 219.828 86.997ZM208.801 85.9892C207.825 85.7118 206.883 85.4589 205.906 85.1815C201.274 83.8399 196.656 82.402 191.882 81.7089C192.064 82.1086 192.274 82.5027 192.456 82.9024C192.485 82.8968 192.548 82.9156 192.578 82.91C195.05 83.5196 197.443 84.3931 199.891 85.0385C202.494 85.7161 205.098 86.3936 207.552 87.4726C207.989 86.9844 208.397 86.5019 208.801 85.9892ZM207.276 87.8364C204.995 87.0968 202.662 86.6154 200.329 86.134C197.841 85.6206 195.453 84.7772 193.035 84.1261C193.259 84.6107 193.479 85.0651 193.704 85.5497C193.733 85.5441 193.767 85.5686 193.767 85.5686C197.816 86.8366 202.015 88.2931 206.18 89.1351C206.563 88.6884 206.917 88.2473 207.276 87.8364ZM205.924 89.4329C203.862 89.1477 201.832 88.6702 199.796 88.1625C197.975 87.6756 196.084 87.3263 194.258 86.8092C194.535 87.439 194.812 88.0688 195.089 88.6985C196.613 88.6216 198.131 89.2913 199.619 89.5632C201.354 89.8804 202.984 90.4973 204.7 90.8805C205.103 90.3678 205.516 89.9154 205.924 89.4329ZM203.166 92.6674C203.544 92.1905 203.957 91.7381 204.336 91.2612C202.926 91.0987 201.551 90.7741 200.136 90.5814C198.658 90.3699 197.017 89.8792 195.494 89.7695C195.685 90.2296 195.842 90.6651 196.032 91.1252C198.325 91.7385 200.739 92.3594 203.087 92.7446C203.141 92.7032 203.166 92.6674 203.166 92.6674ZM198.87 98.6521C199.233 98.2713 199.597 97.8906 199.926 97.4853C199.284 97.4229 198.658 97.2644 198.056 97.0701C198.319 97.6093 198.607 98.1128 198.87 98.6521ZM197.666 95.903C198.589 96.2218 199.462 96.6123 200.424 96.7992C200.695 96.4053 200.937 96.0169 201.179 95.6286C200.503 95.5417 199.818 95.3945 199.137 95.2774C198.578 95.1679 197.999 95.1244 197.44 95.0149C197.486 95.3166 197.591 95.607 197.666 95.903ZM201.588 94.9595C201.929 94.4279 202.269 93.8963 202.643 93.3893C201.612 93.34 200.582 93.1041 199.556 92.8983C198.56 92.6869 197.544 92.5414 196.552 92.3602C196.723 92.8862 196.919 93.3765 197.089 93.9025C198.552 94.2102 200.087 94.5971 201.588 94.9595Z" fill="white"/>
<path d="M15.0742 136.703C29.5785 130.412 46.4469 127.201 61.9519 128.907C68.5028 129.638 75.2908 131.512 80.4909 135.696C81.9221 135.272 83.3717 134.965 84.8014 134.724C91.3926 133.591 98.2375 133.901 104.681 135.292C108.246 136.075 111.66 137.434 115.125 138.539C119.662 139.989 124.234 141.28 128.929 142.212C137.761 143.94 148.005 144.547 155.955 139.047C157.498 137.992 158.971 136.677 160.204 135.165C152.324 133.59 144.86 128.711 142.525 120.603C140.387 113.188 146.169 105.483 153.68 104.875C159.51 104.435 163.239 109.752 164.943 114.754C166.812 120.242 167.26 127.187 164.6 132.623C164.438 132.928 164.28 133.263 164.113 133.538C164.601 133.597 165.114 133.621 165.598 133.651C173.435 133.986 181.944 130.936 188.168 125.886C194.527 120.749 198.227 113.137 199.414 105.15C199.527 104.337 200.765 104.406 200.656 105.248C199.515 114.109 195.473 122.213 188.479 127.896C181.432 133.62 171.783 136.461 163.026 135.601C162.963 135.583 162.905 135.594 162.842 135.575C158.508 141.605 151.196 144.853 144.1 145.625C134.883 146.618 125.601 144.307 116.899 141.671C109.987 139.578 103.519 137.066 96.2302 136.596C91.7562 136.322 87.0556 136.516 82.5843 137.611C87.247 142.384 89.8336 149.409 88.1391 156.245C86.1534 164.293 76.5145 166.431 70.1127 162.993C63.6389 159.477 64.6608 149.27 68.2698 143.774C70.5452 140.298 74.0631 138.076 77.8794 136.619C77.6774 136.475 77.4753 136.331 77.2779 136.216C71.6093 132.486 64.5396 131.306 57.8646 130.933C43.9482 130.203 29.0222 133.196 16.0671 138.857C14.6832 139.394 13.6995 137.299 15.0742 136.703ZM163.314 129.733C164.288 126.748 164.312 123.426 163.927 120.365C163.299 115.158 160.717 107.584 154.682 107.089C151.8 106.846 148.822 108.691 146.763 110.666C143.845 113.473 143.735 117.786 145.002 121.318C147.521 128.296 154.622 131.996 161.609 133.223C162.364 132.105 162.931 130.932 163.314 129.733ZM75.8749 140.105C69.7057 143.379 65.5909 151.406 68.7026 158.149C70.65 162.404 76.5888 162.856 80.5626 161.644C84.4538 160.477 86.1813 156.557 86.4363 152.795C86.8142 147.123 84.071 141.984 80.0616 138.334C78.6059 138.794 77.2312 139.39 75.8749 140.105Z" fill="white"/>
<path d="M222.888 92.4131C226.633 93.0285 230.371 93.3963 234.066 94.2707C238.261 95.2663 242.335 96.846 246.422 98.1119C246.456 98.1365 246.519 98.1554 246.548 98.1497C247.417 95.7395 247.649 93.1097 248.265 90.6237C249.033 87.5479 249.995 84.5592 250.855 81.4966C252.61 75.209 253.801 68.7813 255.839 62.5636C255.879 62.4313 256.098 62.4824 256.058 62.6148C255.103 68.81 253.539 74.9672 251.927 81.0091C251.13 84.0906 250.236 87.1285 249.41 90.2157C248.66 93.0079 248.454 96.0063 247.387 98.7039C247.258 99.0404 246.935 99.1027 246.677 98.9968C246.529 99.2122 246.279 99.354 245.997 99.2839C242.318 98.3131 238.775 96.8488 235.127 95.6851C231.128 94.4023 226.937 93.437 222.832 92.6418C222.705 92.604 222.732 92.3809 222.888 92.4131Z" fill="white"/>
<path d="M225.916 94.8109C229.734 94.944 233.325 96.5509 236.97 97.5257C240.863 98.5458 244.72 99.7282 248.513 101.078C248.576 101.097 248.61 101.122 248.644 101.146C249.346 99.4256 249.454 97.5705 249.65 95.6985C249.872 93.6038 250.566 91.6356 251.197 89.6486C252.739 84.7499 254.017 79.9021 255.029 74.8882C255.069 74.7561 255.249 74.7524 255.243 74.909C255.29 79.7496 253.84 84.6615 252.403 89.2602C251.652 91.6435 250.912 93.9003 250.633 96.4102C250.417 98.3483 250.162 100.232 249.285 101.986C249.146 102.262 248.873 102.252 248.645 102.141C248.488 102.296 248.288 102.365 248.035 102.29C244.5 101.045 240.89 99.9083 237.27 98.8977C233.494 97.855 229.715 96.0046 225.807 95.6714C225.315 95.6109 225.4 94.7862 225.916 94.8109Z" fill="white"/>
<path d="M197.465 79.9489C197.28 79.9224 197.173 79.8182 197.096 79.7083C197.013 79.7557 196.934 79.8333 196.821 79.8863C196.271 80.2421 195.859 79.3236 196.409 78.9677C201.314 75.8672 204.495 70.5734 209.052 67.166C209.298 66.9938 209.554 67.2873 209.347 67.5145C205.603 71.2952 202.365 75.8202 198.079 79.0193C200.175 79.4876 202.146 80.3232 204.207 80.9544C207.188 81.8755 210.201 82.6034 213.207 83.4886C213.46 83.5644 213.344 83.9923 213.096 83.9468C210.511 83.4481 207.947 82.8831 205.402 82.2518C202.785 81.541 200.196 80.4193 197.465 79.9489Z" fill="white"/>
<path d="M257.692 22.8298C262.371 18.7589 266.061 13.5433 270.548 9.19902C271.044 8.69956 271.742 9.52737 271.246 10.0268C266.756 14.341 262.878 19.3133 258.025 23.2314C257.755 23.4387 257.423 23.0371 257.692 22.8298Z" fill="white"/>
<path d="M274.658 8.86519C275.74 5.99277 277.003 3.1166 277.864 0.192756C277.924 -0.00698546 278.179 0.0691783 278.178 0.257521C277.904 3.03693 276.656 5.81609 275.719 8.44122C274.636 11.502 273.161 14.3876 272.269 17.5055C272.112 18.0686 271.308 17.7849 271.466 17.2218C272.174 14.296 273.622 11.6349 274.658 8.86519Z" fill="white"/>
<path d="M275.639 10.1701C276.614 8.00894 278.141 5.67871 278.476 3.29684C278.522 3.006 278.895 3.05933 278.903 3.30836C278.93 5.27591 277.834 7.24126 277.072 9.01659C275.996 11.5104 274.885 13.9795 273.906 16.5171C273.665 17.1273 272.765 16.8001 273.005 16.1899C273.823 14.1846 274.733 12.1926 275.639 10.1701Z" fill="white"/>
<path d="M178.939 63.5721C180.611 64.9992 182.319 66.669 183.7 68.3711C183.995 68.7202 183.463 69.1981 183.167 68.849C181.52 66.7921 179.408 64.8566 177.455 63.1714C175.744 61.6894 173.689 60.524 172.261 58.7063C172.11 58.5165 172.372 58.2472 172.552 58.4313C174.375 60.454 176.884 61.813 178.939 63.5721Z" fill="white"/>
<path d="M184.944 67.3987C185.24 67.7476 184.703 68.1949 184.412 67.8763C181.554 64.6184 178.006 61.9936 174.635 59.3346C174.431 59.1867 174.654 58.8626 174.858 59.0105C178.382 61.4837 182.102 64.0441 184.944 67.3987Z" fill="white"/>
<path d="M186.099 66.8265C186.424 67.1697 185.863 67.653 185.542 67.3401C183.026 64.7346 180.334 61.5698 177.131 59.8154C177.034 59.7717 177.104 59.6334 177.196 59.6466C178.57 59.7247 180.189 61.4105 181.224 62.2412C182.982 63.6502 184.524 65.226 186.099 66.8265Z" fill="white"/>
<path d="M187.455 65.6158C187.692 65.9759 187.214 66.4116 186.953 66.0875C186.121 64.9996 184.906 64.1732 183.897 63.307C182.611 62.2133 181.256 61.258 179.9 60.3026C179.662 60.1302 179.91 59.7702 180.143 59.9124C181.548 60.7957 182.928 61.7151 184.264 62.7367C185.332 63.5916 186.678 64.4863 187.455 65.6158Z" fill="white"/>
<path d="M187.892 65.6563C186.499 63.6743 184.158 62.438 182.844 60.3782C182.809 60.3535 182.834 60.3174 182.893 60.3061C183.466 60.2891 184.475 61.5327 184.825 61.8403C185.981 62.8674 187.501 63.8871 188.371 65.2198C188.608 65.5805 188.129 66.017 187.892 65.6563Z" fill="white"/>
<path d="M189.092 64.7921C188.537 64.3364 188.111 63.7307 187.606 63.2028C186.926 62.5211 186.271 61.8033 185.561 61.1273C185.386 60.9734 185.668 60.6375 185.843 60.7913C187.103 61.8927 188.204 63.1498 189.434 64.2569C189.721 64.5455 189.403 65.0447 189.092 64.7921Z" fill="white"/>
<path d="M172.929 64.6382C174.577 65.8567 176.105 67.2865 177.703 68.5773C179.228 69.7882 180.899 71.159 182.087 72.7485C182.13 72.8342 182.139 72.8951 182.149 72.956C182.99 74.6749 183.777 76.4356 184.589 78.1602C185.232 79.5726 186.042 80.8898 186.398 82.4202C186.417 82.542 186.219 82.6428 186.167 82.4962C185.042 79.327 183.066 76.1652 181.462 73.2451C181.423 73.1899 181.409 73.0986 181.43 73.0319C178.996 69.8643 175.367 67.8363 172.77 64.7942C172.697 64.7143 172.822 64.5335 172.929 64.6382Z" fill="white"/>
</svg>
