<svg width="14" height="14" viewBox="0 0 14 14" fill="none" xmlns="http://www.w3.org/2000/svg">
<path d="M6.55258 9.93242e-06C5.64503 -0.00112627 4.74721 0.189977 3.9165 0.561111C4.295 1.20216 4.6724 1.84468 5.04873 2.48866C6.05163 2.11602 7.15408 2.12855 8.14853 2.52386C8.50968 1.87475 8.87084 1.22673 9.23199 0.579814C8.38938 0.196017 7.47608 -0.00161443 6.55258 9.93242e-06Z" fill="#199AD6"/>
<path d="M10.4564 1.30811C10.0771 1.94549 9.69756 2.58213 9.31763 3.21805C10.1637 3.91881 10.7201 4.91642 10.8767 6.01365L13.0675 5.92344C12.9691 5.01292 12.6863 4.1329 12.237 3.33865C11.7876 2.5444 11.1814 1.85308 10.4564 1.30811Z" fill="#69C7B9"/>
<path d="M3.74453 3.2567L2.56139 1.37646C1.23971 2.40742 0.354464 3.91096 0.0857623 5.58118C-0.18294 7.25139 0.185084 8.96283 1.11496 10.3673L2.81058 8.93703C2.27363 8.03191 2.07266 6.96182 2.2439 5.91956C2.41513 4.8773 2.9473 3.93141 3.74453 3.2523V3.2567Z" fill="#D61B5E"/>
<path d="M10.8431 7.49463C10.6991 8.25152 10.3633 8.95724 9.86884 9.5422C9.37439 10.1272 8.73835 10.5712 8.02342 10.8305C7.30849 11.0898 6.53934 11.1555 5.79181 11.021C5.04428 10.8865 4.34417 10.5565 3.76049 10.0636L2.08545 11.5214C2.96551 12.3538 4.05418 12.9242 5.23222 13.1702C6.41027 13.4162 7.63227 13.3284 8.7644 12.9162C9.89654 12.504 10.8952 11.7834 11.6509 10.8334C12.4066 9.88333 12.8903 8.74043 13.0491 7.52984L10.8431 7.49463Z" fill="#BF9CC9"/>
</svg>
