<svg width="64" height="13" viewBox="0 0 64 13" fill="none" xmlns="http://www.w3.org/2000/svg">
<path d="M38.4393 0.732431C37.618 0.731413 36.8056 0.902665 36.054 1.23525C36.3964 1.80971 36.7379 2.38548 37.0785 2.96257C37.986 2.62865 38.9835 2.63987 39.8834 2.99412C40.2102 2.41243 40.537 1.83173 40.8638 1.25201C40.1013 0.908078 39.2749 0.730975 38.4393 0.732431V0.732431Z" fill="#199AD6"/>
<path d="M41.9716 1.90479C41.6284 2.47596 41.285 3.04648 40.9412 3.61633C41.7068 4.2443 42.2102 5.13829 42.3519 6.12155L44.3343 6.0407C44.2452 5.22476 43.9894 4.43615 43.5828 3.72441C43.1762 3.01266 42.6276 2.39315 41.9716 1.90479V1.90479Z" fill="#69C7B9"/>
<path d="M35.8981 3.65173L34.8275 1.9668C33.6315 2.89067 32.8305 4.23802 32.5874 5.73475C32.3442 7.23147 32.6772 8.76513 33.5187 10.0237L35.053 8.74201C34.5671 7.93091 34.3852 6.97197 34.5402 6.03798C34.6951 5.10399 35.1767 4.25635 35.8981 3.64778V3.65173Z" fill="#D61B5E"/>
<path d="M42.3217 7.44922C42.1914 8.12749 41.8876 8.7599 41.4401 9.2841C40.9927 9.80831 40.4172 10.2062 39.7703 10.4386C39.1234 10.671 38.4274 10.7298 37.751 10.6093C37.0746 10.4888 36.4411 10.1931 35.9129 9.75133L34.3972 11.0577C35.1936 11.8036 36.1787 12.3148 37.2446 12.5353C38.3106 12.7557 39.4163 12.677 40.4408 12.3076C41.4652 11.9382 42.3688 11.2925 43.0527 10.4412C43.7365 9.58979 44.1742 8.56561 44.3178 7.48077L42.3217 7.44922Z" fill="#BF9CC9"/>
<path d="M5.74518 12.6835C4.60335 12.6835 3.62622 12.4403 2.8138 11.954C1.99908 11.4669 1.34794 10.7459 0.944195 9.88353C0.509554 8.98964 0.292561 7.92419 0.293214 6.6872C0.293214 5.46137 0.510208 4.40119 0.944195 3.50663C1.34849 2.64468 1.9995 1.92375 2.8138 1.43621C3.62557 0.950482 4.60269 0.707618 5.74518 0.707618C6.40457 0.703927 7.0605 0.803719 7.68929 1.00339C8.26892 1.18356 8.81038 1.47002 9.28635 1.84832C9.36891 1.89899 9.44012 1.96633 9.49547 2.04609C9.55083 2.12585 9.58911 2.21629 9.60792 2.3117C9.63803 2.47505 9.60545 2.64381 9.51674 2.78396C9.47557 2.85069 9.4216 2.90851 9.35797 2.95404C9.29435 2.99957 9.22234 3.03191 9.14616 3.04917C8.98733 3.08729 8.8089 3.03471 8.61086 2.89142C7.83112 2.26241 6.88701 1.9479 5.77851 1.9479C4.47132 1.9479 3.47197 2.36198 2.78047 3.19015C2.08897 4.01832 1.74158 5.184 1.73831 6.6872C1.73831 8.19893 2.08406 9.36954 2.77557 10.199C3.46707 11.0285 4.46642 11.4426 5.77361 11.4413C6.88472 11.4413 7.83995 11.1209 8.63929 10.48C8.83537 10.3479 9.01478 10.2976 9.17459 10.3311C9.24897 10.3447 9.3197 10.3739 9.38218 10.4166C9.44467 10.4594 9.49752 10.515 9.53733 10.5796C9.61961 10.7132 9.6516 10.8719 9.62753 11.0272C9.59665 11.2076 9.49579 11.3682 9.34714 11.4738C8.86592 11.8767 8.31251 12.1832 7.71674 12.3769C7.08005 12.5843 6.41443 12.6879 5.74518 12.6835V12.6835Z" fill="black"/>
<path d="M19.8069 0.740234C19.3559 0.740234 19.1307 0.97784 19.1314 1.45305V6.02474H13.8824C13.7263 6.02474 13.5767 6.08707 13.4664 6.198C13.3561 6.30894 13.2941 6.4594 13.2941 6.61629V6.61629C13.2941 6.77318 13.3561 6.92364 13.4664 7.03458C13.5767 7.14552 13.7263 7.20784 13.8824 7.20784H19.1353V11.9452C19.1353 12.4197 19.3605 12.657 19.8108 12.657C20.2611 12.657 20.4859 12.4197 20.4853 11.9452V1.45305C20.4827 0.97784 20.2565 0.740234 19.8069 0.740234ZM11.4882 0.740234C11.0379 0.740234 10.8127 0.97784 10.8127 1.45305V11.9383C10.8127 12.4128 11.0379 12.6501 11.4882 12.6501C11.9274 12.6501 12.1523 12.424 12.1627 11.9718H12.1176V2.4084H12.1637V1.45305C12.1637 0.97784 11.9386 0.740234 11.4882 0.740234Z" fill="black"/>
<path d="M32.2756 11.7224L27.7295 1.35348C27.6658 1.16584 27.5481 1.00147 27.3913 0.881228C27.2582 0.788715 27.1001 0.739504 26.9383 0.740243C26.5762 0.740243 26.3073 0.944655 26.1315 1.35348L21.6021 11.7224C21.4805 11.9853 21.4694 12.2061 21.5687 12.3849C21.6681 12.5637 21.8494 12.6521 22.1128 12.6501C22.4305 12.6501 22.6775 12.4457 22.854 12.0369L23.5472 10.4032C23.8086 9.75315 24.0838 9.09292 24.3726 8.4225C24.5543 8.00381 24.7364 7.5917 24.9187 7.18616L26.9217 2.44686H26.955L29.4707 8.40968H25.9187C25.779 8.40952 25.6442 8.46176 25.5406 8.5562C25.4371 8.65063 25.3723 8.78048 25.3589 8.92038V8.93221C25.3513 9.01074 25.36 9.09001 25.3847 9.16492C25.4093 9.23983 25.4493 9.30872 25.5021 9.36714C25.5548 9.42556 25.6191 9.47223 25.6909 9.50413C25.7626 9.53603 25.8403 9.55246 25.9187 9.55236H29.954L31.0246 12.0369C31.084 12.2106 31.185 12.3671 31.3187 12.4924C31.4531 12.6024 31.6231 12.6586 31.7962 12.6501C32.0576 12.6501 32.2334 12.5617 32.3236 12.3849C32.4119 12.2084 32.3962 11.9876 32.2756 11.7224Z" fill="black"/>
<path d="M49.5844 12.6836C48.8307 12.6885 48.0798 12.591 47.3521 12.3937C46.7038 12.2236 46.0925 11.9341 45.5491 11.5399C45.4711 11.4928 45.4032 11.4305 45.3493 11.3567C45.2954 11.2829 45.2567 11.1991 45.2354 11.1101C45.2016 10.9532 45.222 10.7894 45.2932 10.6457C45.3249 10.5783 45.3697 10.5179 45.4249 10.4681C45.4801 10.4183 45.5447 10.3801 45.6148 10.3558C45.7573 10.3066 45.9207 10.3424 46.105 10.4633C46.58 10.8185 47.1161 11.0825 47.6864 11.2422C48.3057 11.4062 48.944 11.4858 49.5844 11.4788C50.5726 11.4788 51.3057 11.2938 51.7834 10.9237C52.0118 10.756 52.1962 10.5351 52.321 10.2799C52.4459 10.0247 52.5073 9.74294 52.5001 9.45866C52.5086 9.23801 52.466 9.0184 52.3759 8.81705C52.2857 8.61571 52.1504 8.43813 51.9805 8.29824C51.6354 8.01167 51.0563 7.78557 50.2432 7.61993L48.5305 7.2719C47.4985 7.05106 46.7269 6.68956 46.2158 6.1874C45.7047 5.68524 45.4498 5.01251 45.4511 4.16923C45.4372 3.52077 45.6243 2.88404 45.9864 2.34726C46.362 1.81319 46.878 1.39469 47.4766 1.13852C48.1737 0.838867 48.9264 0.691993 49.6844 0.707679C50.3406 0.70237 50.9935 0.800168 51.6197 0.997538C52.2086 1.18579 52.7585 1.48047 53.2422 1.86712C53.3823 1.96844 53.4793 2.1191 53.5138 2.28909C53.5427 2.43958 53.5162 2.5955 53.4393 2.72782C53.4048 2.79109 53.3578 2.84657 53.3011 2.89083C53.2445 2.93509 53.1794 2.96719 53.1099 2.98514C52.9674 3.02392 52.7971 2.98251 52.5991 2.86092C52.1905 2.53445 51.7251 2.28738 51.2266 2.13233C50.7199 1.9839 50.1944 1.91082 49.6668 1.91543C48.7988 1.91543 48.107 2.11688 47.5913 2.51979C47.3438 2.70407 47.1442 2.94565 47.0094 3.22404C46.8746 3.50243 46.8085 3.80941 46.8168 4.11895C46.8168 4.64871 46.9802 5.06838 47.307 5.37796C47.6338 5.68754 48.1622 5.91364 48.8922 6.05627L50.606 6.42106C51.7171 6.65308 52.5377 7.00374 53.0677 7.47303C53.5978 7.94233 53.8641 8.57989 53.8668 9.38571C53.8781 10.0007 53.6966 10.6036 53.3481 11.1091C52.973 11.6286 52.459 12.0303 51.8658 12.2675C51.2239 12.5449 50.4635 12.6836 49.5844 12.6836Z" fill="black"/>
<path d="M58.7256 12.6836C57.9722 12.6884 57.2216 12.5909 56.4942 12.3937C55.8455 12.2238 55.2339 11.9343 54.6903 11.5399C54.6124 11.4927 54.5447 11.4304 54.491 11.3566C54.4373 11.2828 54.3987 11.199 54.3775 11.1101C54.3434 10.9533 54.3635 10.7895 54.4344 10.6457C54.4661 10.5783 54.5108 10.5179 54.566 10.4681C54.6213 10.4183 54.6858 10.3801 54.756 10.3558C54.8991 10.3066 55.0628 10.342 55.2462 10.4633C55.7212 10.8185 56.2573 11.0825 56.8275 11.2422C57.4468 11.4062 58.0852 11.4858 58.7256 11.4788C59.7138 11.4788 60.4468 11.2938 60.9246 10.9237C61.1529 10.756 61.3374 10.5351 61.4622 10.2799C61.587 10.0247 61.6485 9.74294 61.6413 9.45867C61.6497 9.23812 61.6073 9.0186 61.5173 8.81729C61.4273 8.61597 61.2922 8.43833 61.1226 8.29824C60.7769 8.01167 60.1975 7.78557 59.3844 7.61993L57.6716 7.27191C56.6396 7.05106 55.8681 6.68956 55.3569 6.1874C54.8458 5.68524 54.5906 5.01449 54.5913 4.17515C54.5774 3.52668 54.7645 2.88995 55.1265 2.35317C55.5016 1.81667 56.018 1.39602 56.6177 1.13853C57.3146 0.838861 58.0669 0.691984 58.8246 0.707681C59.4808 0.702371 60.1337 0.80017 60.7599 0.99754C61.3488 1.18579 61.8987 1.48047 62.3824 1.86712C62.5231 1.96782 62.6203 2.11876 62.654 2.28909C62.6833 2.43958 62.6568 2.59566 62.5795 2.72782C62.545 2.79109 62.498 2.84657 62.4413 2.89083C62.3847 2.93509 62.3196 2.96719 62.2501 2.98515C62.1079 3.0236 61.9373 2.98515 61.7403 2.86092C61.3317 2.53453 60.8662 2.28746 60.3677 2.13233C59.8611 1.98383 59.3356 1.91075 58.8079 1.91543C57.9426 1.91543 57.2507 2.11721 56.7324 2.52078C56.4852 2.70523 56.2859 2.94686 56.1512 3.22523C56.0166 3.5036 55.9506 3.81049 55.9589 4.11993C55.9589 4.6497 56.1223 5.06937 56.4491 5.37895C56.7759 5.68853 57.304 5.9143 58.0334 6.05627L59.7471 6.42106C60.8582 6.65308 61.6788 7.00374 62.2089 7.47303C62.739 7.94233 63.0053 8.57989 63.0079 9.38571C63.0193 10.0007 62.8378 10.6036 62.4893 11.1091C62.1142 11.6286 61.6002 12.0303 61.0069 12.2675C60.3651 12.5449 59.6047 12.6836 58.7256 12.6836Z" fill="black"/>
</svg>
