<svg width="210" height="67" viewBox="0 0 210 67" fill="none" xmlns="http://www.w3.org/2000/svg">
<path d="M14.3652 37.2993C14.3652 36.0828 14.8069 35.1227 15.6903 34.4189C16.5737 33.7151 17.7771 33.3639 19.3006 33.3653H21.8878V32.3031C21.8904 32.1022 21.8432 31.9037 21.7504 31.7255C21.6575 31.5474 21.5218 31.395 21.3556 31.2822C20.9274 31.0008 20.4204 30.8637 19.9088 30.8911C19.4452 30.8747 18.9849 30.9755 18.5707 31.1844C18.4098 31.2646 18.2664 31.376 18.1489 31.5121C18.0314 31.6482 17.9422 31.8063 17.8865 31.9773H14.7345C14.8135 31.4481 15.0022 30.9413 15.2884 30.4893C15.5755 30.0424 15.9493 29.6576 16.3876 29.3575C16.8653 29.0329 17.3939 28.7906 17.9516 28.6407C18.5888 28.4684 19.2466 28.3843 19.9067 28.3909C20.6304 28.3826 21.3516 28.4777 22.0485 28.6733C22.644 28.8408 23.2046 29.1138 23.7038 29.4792C24.1462 29.8041 24.51 30.2243 24.7682 30.7087C25.0262 31.2047 25.1569 31.7571 25.1483 32.3161V40.5707H22.0398V38.1812H21.8487C21.8092 38.5642 21.6865 38.934 21.4891 39.2645C21.2917 39.5951 21.0245 39.8786 20.706 40.095C20.0471 40.557 19.2101 40.7887 18.1949 40.7901C17.0219 40.7901 16.0907 40.478 15.4014 39.8539C14.7121 39.2297 14.3667 38.3782 14.3652 37.2993ZM19.5178 38.279C20.1248 38.305 20.7239 38.1335 21.2252 37.7902C21.4305 37.6527 21.5984 37.4664 21.714 37.2481C21.8297 37.0297 21.8894 36.7861 21.8878 36.539V35.3225H19.3006C18.862 35.2998 18.4298 35.4346 18.082 35.7027C17.9272 35.8362 17.8055 36.0037 17.7263 36.1922C17.6472 36.3806 17.6128 36.5848 17.6258 36.7888C17.6167 36.9974 17.6561 37.2052 17.7409 37.3959C17.8257 37.5866 17.9536 37.7551 18.1145 37.888C18.5222 38.179 19.018 38.3202 19.5178 38.2877V38.279Z" fill="white"/>
<path d="M33.7592 24.2354V36.4304C33.7418 36.5917 33.7607 36.7548 33.8145 36.9078C33.8683 37.0608 33.9558 37.1998 34.0703 37.3146C34.1849 37.4294 34.3238 37.5171 34.4767 37.5712C34.6296 37.6253 34.7927 37.6445 34.954 37.6273H38.5425V40.562H34.6325C33.3422 40.562 32.3284 40.1956 31.5913 39.4629C30.8542 38.7301 30.4878 37.7164 30.4922 36.4217V27.1701H26.7993V24.2354H33.7592Z" fill="white"/>
<path d="M46.2599 24.2354V36.4304C46.2424 36.5919 46.2613 36.7552 46.3152 36.9084C46.3692 37.0616 46.4568 37.2007 46.5716 37.3155C46.6865 37.4304 46.8256 37.518 46.9788 37.5719C47.132 37.6259 47.2953 37.6448 47.4568 37.6273H51.0432V40.562H47.1331C45.8428 40.562 44.8291 40.1956 44.092 39.4629C43.3548 38.7301 42.9928 37.7164 43.0058 36.4217V27.1701H39.313V24.2354H46.2599Z" fill="white"/>
<path d="M62.5674 37.6143H66.8141V31.5472H63.1213V28.6103H69.8553V37.6143H73.2245V40.5708H62.5804L62.5674 37.6143ZM66.1625 25.1108C66.1533 24.9049 66.1885 24.6994 66.2657 24.5082C66.3429 24.3171 66.4603 24.1448 66.6099 24.003C66.9358 23.7165 67.3605 23.5684 67.7938 23.5902H68.4455C68.8794 23.5688 69.3047 23.7168 69.6316 24.003C69.7808 24.145 69.8978 24.3174 69.9746 24.5085C70.0515 24.6996 70.0863 24.905 70.0769 25.1108C70.0855 25.3176 70.0495 25.5238 69.9711 25.7154C69.8928 25.907 69.774 26.0794 69.6229 26.2208C69.2889 26.5096 68.8559 26.6575 68.4151 26.6336H67.7851C67.3504 26.6565 66.9238 26.5084 66.5969 26.2208C66.4495 26.0776 66.3344 25.9044 66.2595 25.7129C66.1845 25.5214 66.1514 25.3161 66.1625 25.1108Z" fill="white"/>
<path d="M75.0908 40.5707V28.6103H78.1776V30.6761H78.3948C78.4298 30.3443 78.5329 30.0233 78.6978 29.7332C78.8626 29.4432 79.0856 29.1903 79.3528 28.9904C79.8886 28.5907 80.5917 28.3916 81.462 28.3931C82.6785 28.3931 83.6386 28.7913 84.3425 29.5878C85.0463 30.3843 85.3975 31.4704 85.396 32.8462V40.5642H82.1376V33.172C82.153 32.9107 82.1157 32.649 82.028 32.4023C81.9403 32.1557 81.804 31.9291 81.6271 31.7362C81.2458 31.4 80.755 31.2146 80.2467 31.2146C79.7384 31.2146 79.2475 31.4 78.8662 31.7362C78.6885 31.9288 78.5514 32.1552 78.463 32.4018C78.3745 32.6485 78.3366 32.9104 78.3514 33.172V40.5577L75.0908 40.5707Z" fill="white"/>
<path d="M2.58933 32.0076C3.86372 32.0076 4.45747 31.4138 4.37058 30.2263L4.15335 26.8116C4.11702 26.273 4.19094 25.7327 4.37058 25.2236C4.53849 24.7743 4.81103 24.3715 5.16563 24.0485C5.53656 23.7129 5.97292 23.4577 6.44726 23.299C6.99059 23.1184 7.5604 23.0303 8.13293 23.0384H9.61223V25.5299H8.50221C8.06545 25.5022 7.63341 25.6334 7.28575 25.8992C6.99466 26.1447 6.86433 26.5379 6.89257 27.0722L7.10979 30.487C7.14847 30.8422 7.10491 31.2015 6.98249 31.5371C6.86007 31.8727 6.66207 32.1757 6.40381 32.4225C5.83633 32.9212 5.10426 33.192 4.34886 33.1828V33.2914C5.21776 33.3204 5.90636 33.5847 6.41467 34.0843C6.6693 34.3402 6.86377 34.6496 6.984 34.99C7.10423 35.3304 7.1472 35.6933 7.10979 36.0523L6.89257 39.4454C6.868 39.6493 6.89155 39.8561 6.96134 40.0493C7.03113 40.2424 7.14521 40.4165 7.29444 40.5576C7.63029 40.8405 8.06161 40.9843 8.50004 40.9595H9.61006V43.4815H8.13293C7.56315 43.4885 6.99647 43.3966 6.45812 43.2099C5.97463 43.0466 5.53067 42.7839 5.15476 42.4388C4.79574 42.1001 4.51992 41.6831 4.34886 41.2201C4.15968 40.7067 4.08552 40.1579 4.13163 39.6127L4.34886 36.3065C4.3923 35.7142 4.27283 35.2653 3.99043 34.9597C3.70804 34.6556 3.23232 34.5013 2.56761 34.5013H0V32.0076H2.58933Z" fill="#06F395"/>
<path d="M90.3945 43.4881V40.9661H91.5024C91.943 40.9927 92.3788 40.8618 92.7319 40.5968C93.0295 40.3513 93.1663 39.9668 93.1337 39.4455L92.9165 36.0307C92.8571 35.2183 93.0852 34.5731 93.6008 34.0952C94.1683 33.5965 94.9003 33.3257 95.6557 33.3349V33.2263C94.8906 33.2385 94.1504 32.9544 93.5899 32.4335C93.3366 32.1774 93.1444 31.8673 93.0278 31.5265C92.9112 31.1857 92.8732 30.823 92.9165 30.4654L93.1337 27.0723C93.1605 26.8631 93.137 26.6505 93.0653 26.4522C92.9935 26.2539 92.8755 26.0755 92.721 25.9319C92.3794 25.6503 91.9446 25.5069 91.5024 25.53H90.3945V23.0298H91.8956C92.4611 23.0219 93.0237 23.1138 93.5573 23.3013C94.0321 23.4681 94.4676 23.7306 94.8368 24.0724C95.193 24.4087 95.4679 24.8218 95.6405 25.2802C95.8277 25.7903 95.8982 26.3359 95.8469 26.8768L95.6297 30.2047C95.5862 30.7977 95.7057 31.2452 95.9881 31.5407C96.2705 31.8361 96.7462 31.9751 97.4131 31.9751H100V34.4862H97.4174C96.1416 34.4862 95.5471 35.0879 95.634 36.2914L95.8512 39.6844C95.8874 40.2187 95.8135 40.7548 95.634 41.2593C95.4692 41.7165 95.2017 42.1297 94.852 42.4671C94.4849 42.8115 94.0467 43.071 93.5682 43.2274C93.029 43.4064 92.4637 43.4945 91.8956 43.4881H90.3945Z" fill="#06F395"/>
<path d="M119.713 41.8076L112.931 34.3511C112.221 33.5596 111.665 32.8788 111.264 32.3089C110.863 31.7232 110.577 31.1691 110.407 30.6467C110.238 30.1242 110.153 29.5543 110.153 28.9369C110.153 27.9237 110.346 27.0767 110.731 26.396C111.117 25.6994 111.727 25.1691 112.56 24.805C113.409 24.4408 114.497 24.2588 115.824 24.2588C116.349 24.2588 116.92 24.2905 117.537 24.3538C118.154 24.4013 118.702 24.4567 119.181 24.52V26.8947C118.872 26.863 118.478 26.8234 118 26.7759C117.522 26.7284 117.051 26.6968 116.588 26.681C116.125 26.6493 115.747 26.6335 115.454 26.6335C114.42 26.6335 113.702 26.8393 113.301 27.2509C112.9 27.6625 112.699 28.2562 112.699 29.0319C112.699 29.681 112.846 30.2825 113.139 30.8366C113.448 31.3907 113.926 32.024 114.574 32.7364L122.838 41.8076H119.713ZM114.042 42.2588C112.838 42.2588 111.781 42.0213 110.87 41.5464C109.96 41.0715 109.25 40.4303 108.741 39.6229C108.247 38.7997 108 37.8894 108 36.892V36.5596C108 35.4039 108.309 34.3828 108.926 33.4963C109.559 32.6097 110.353 31.9131 111.31 31.4065L112.583 33.1401C111.997 33.4567 111.511 33.9316 111.125 34.5649C110.755 35.1823 110.569 35.8788 110.569 36.6546C110.569 37.3353 110.716 37.9211 111.009 38.4118C111.318 38.9026 111.742 39.2746 112.282 39.5279C112.823 39.7812 113.432 39.9079 114.111 39.9079C115.13 39.9079 116.025 39.6229 116.796 39.053C117.583 38.4672 118.193 37.5886 118.625 36.4171C119.057 35.2456 119.273 33.7654 119.273 31.9765H121.681C121.681 33.5912 121.503 35.0319 121.148 36.2984C120.793 37.5649 120.276 38.6414 119.597 39.5279C118.934 40.4145 118.131 41.0952 117.19 41.5701C116.248 42.0292 115.199 42.2588 114.042 42.2588ZM116.75 32.3564V30.2192H123V32.3564H116.75Z" fill="white"/>
<path d="M178.683 25.7324C177.656 25.7311 176.641 25.9473 175.701 26.3671C176.129 27.0922 176.556 27.8189 176.982 28.5473C178.116 28.1258 179.363 28.14 180.488 28.5871C180.896 27.8529 181.305 27.12 181.713 26.3882C180.76 25.9541 179.727 25.7306 178.683 25.7324Z" fill="#199AD6"/>
<path d="M183.098 27.2122C182.669 27.9331 182.24 28.6532 181.81 29.3725C182.767 30.1651 183.396 31.2935 183.574 32.5345L186.051 32.4325C185.94 31.4026 185.62 30.4072 185.112 29.5089C184.604 28.6105 183.918 27.8286 183.098 27.2122Z" fill="#69C7B9"/>
<path d="M175.506 29.4172L174.168 27.2905C172.673 28.4566 171.672 30.1572 171.368 32.0464C171.064 33.9356 171.48 35.8713 172.532 37.4599L174.45 35.8421C173.843 34.8184 173.615 33.608 173.809 32.4291C174.003 31.2503 174.605 30.1804 175.506 29.4123V29.4172Z" fill="#D61B5E"/>
<path d="M183.536 34.2107C183.373 35.0668 182.993 35.865 182.434 36.5267C181.874 37.1883 181.155 37.6905 180.346 37.9839C179.538 38.2772 178.668 38.3514 177.822 38.1993C176.977 38.0472 176.185 37.674 175.524 37.1164L173.63 38.7652C174.625 39.7068 175.857 40.352 177.189 40.6303C178.522 40.9085 179.904 40.8091 181.184 40.3429C182.465 39.8767 183.594 39.0617 184.449 37.9871C185.304 36.9125 185.851 35.6198 186.031 34.2505L183.536 34.2107Z" fill="#BF9CC9"/>
<path d="M137.815 40.8174C136.388 40.8174 135.166 40.5105 134.151 39.8966C133.132 39.2819 132.318 38.3717 131.814 37.2833C131.27 36.155 130.999 34.8102 131 33.2489C131 31.7017 131.271 30.3635 131.814 29.2344C132.319 28.1465 133.133 27.2365 134.151 26.6212C135.165 26.0081 136.387 25.7015 137.815 25.7015C138.639 25.6969 139.459 25.8228 140.245 26.0749C140.97 26.3023 141.646 26.6638 142.241 27.1413C142.345 27.2053 142.434 27.2903 142.503 27.3909C142.572 27.4916 142.62 27.6058 142.643 27.7262C142.681 27.9324 142.64 28.1454 142.529 28.3223C142.478 28.4065 142.41 28.4795 142.331 28.537C142.251 28.5944 142.161 28.6352 142.066 28.657C141.868 28.7051 141.645 28.6388 141.397 28.4579C140.422 27.664 139.242 27.267 137.857 27.267C136.223 27.267 134.973 27.7897 134.109 28.835C133.245 29.8803 132.81 31.3516 132.806 33.2489C132.806 35.157 133.239 36.6346 134.103 37.6815C134.967 38.7285 136.217 39.2511 137.85 39.2495C139.239 39.2495 140.433 38.845 141.433 38.0362C141.678 37.8694 141.902 37.806 142.102 37.8483C142.195 37.8654 142.283 37.9022 142.361 37.9562C142.439 38.0102 142.505 38.0803 142.555 38.1619C142.658 38.3305 142.698 38.5309 142.668 38.7268C142.629 38.9545 142.503 39.1573 142.317 39.2905C141.716 39.799 141.024 40.1859 140.279 40.4304C139.484 40.6922 138.652 40.8229 137.815 40.8174Z" fill="white"/>
<path d="M155.392 25.7424C154.828 25.7424 154.547 26.0423 154.548 26.6421V32.4125H147.986C147.791 32.4125 147.604 32.4912 147.466 32.6312C147.329 32.7712 147.251 32.9611 147.251 33.1591C147.251 33.3572 147.329 33.5471 147.466 33.6871C147.604 33.8271 147.791 33.9058 147.986 33.9058H154.553V39.8852C154.553 40.4842 154.834 40.7837 155.397 40.7837C155.96 40.7837 156.241 40.4842 156.24 39.8852V26.6421C156.237 26.0423 155.954 25.7424 155.392 25.7424ZM144.994 25.7424C144.431 25.7424 144.149 26.0423 144.149 26.6421V39.8765C144.149 40.4755 144.431 40.775 144.994 40.775C145.543 40.775 145.824 40.4896 145.837 39.9188H145.781V27.848H145.838V26.6421C145.838 26.0423 145.557 25.7424 144.994 25.7424Z" fill="white"/>
<path d="M170.978 39.604L165.295 26.5165C165.216 26.2796 165.069 26.0722 164.873 25.9204C164.706 25.8036 164.509 25.7415 164.307 25.7424C163.854 25.7424 163.518 26.0005 163.298 26.5165L157.636 39.604C157.484 39.9358 157.47 40.2146 157.595 40.4402C157.719 40.6659 157.945 40.7775 158.275 40.775C158.672 40.775 158.981 40.517 159.201 40.0009L160.068 37.9389C160.394 37.1185 160.738 36.2851 161.099 35.4389C161.327 34.9105 161.554 34.3903 161.782 33.8784L164.286 27.8965H164.327L167.472 35.4227H163.032C162.857 35.4225 162.689 35.4885 162.559 35.6077C162.43 35.7269 162.349 35.8908 162.332 36.0673V36.0823C162.323 36.1814 162.334 36.2815 162.364 36.376C162.395 36.4706 162.445 36.5575 162.511 36.6312C162.577 36.705 162.658 36.7639 162.747 36.8041C162.837 36.8444 162.934 36.8651 163.032 36.865H168.076L169.414 40.0009C169.489 40.2203 169.615 40.4177 169.782 40.5759C169.95 40.7147 170.163 40.7857 170.379 40.775C170.706 40.775 170.925 40.6634 171.038 40.4402C171.148 40.2175 171.129 39.9387 170.978 39.604Z" fill="white"/>
<path d="M192.614 40.8173C191.672 40.8235 190.733 40.7004 189.823 40.4514C189.013 40.2367 188.249 39.8713 187.57 39.3738C187.472 39.3143 187.387 39.2356 187.32 39.1425C187.253 39.0493 187.204 38.9435 187.178 38.8312C187.135 38.6332 187.161 38.4264 187.25 38.2451C187.289 38.16 187.345 38.0837 187.414 38.0209C187.483 37.9581 187.564 37.9099 187.652 37.8792C187.83 37.817 188.034 37.8622 188.265 38.0149C188.858 38.4632 189.529 38.7964 190.241 38.998C191.015 39.2049 191.813 39.3054 192.614 39.2966C193.849 39.2966 194.765 39.0631 195.363 38.596C195.648 38.3843 195.879 38.1054 196.035 37.7834C196.191 37.4613 196.267 37.1056 196.258 36.7468C196.269 36.4683 196.216 36.1911 196.103 35.937C195.991 35.6828 195.821 35.4587 195.609 35.2821C195.178 34.9204 194.454 34.635 193.437 34.426L191.296 33.9867C190.006 33.7079 189.042 33.2517 188.403 32.6178C187.764 31.984 187.446 31.1349 187.447 30.0705C187.43 29.252 187.664 28.4484 188.116 27.7708C188.586 27.0967 189.231 26.5685 189.979 26.2452C190.851 25.867 191.791 25.6816 192.739 25.7014C193.559 25.6947 194.375 25.8181 195.158 26.0672C195.894 26.3049 196.581 26.6768 197.186 27.1648C197.361 27.2927 197.482 27.4829 197.526 27.6974C197.562 27.8874 197.529 28.0842 197.432 28.2512C197.389 28.331 197.331 28.4011 197.26 28.4569C197.189 28.5128 197.108 28.5533 197.021 28.576C196.843 28.6249 196.63 28.5727 196.382 28.4192C195.872 28.0071 195.29 27.6953 194.667 27.4996C194.033 27.3122 193.376 27.22 192.717 27.2258C191.632 27.2258 190.767 27.4801 190.122 27.9886C189.813 28.2212 189.564 28.5261 189.395 28.8775C189.227 29.2289 189.144 29.6164 189.154 30.0071C189.154 30.6757 189.359 31.2054 189.767 31.5962C190.176 31.9869 190.836 32.2723 191.749 32.4523L193.891 32.9128C195.28 33.2056 196.305 33.6482 196.968 34.2406C197.631 34.8329 197.964 35.6376 197.967 36.6547C197.981 37.4309 197.754 38.192 197.319 38.83C196.85 39.4857 196.207 39.9927 195.466 40.2921C194.663 40.6422 193.713 40.8173 192.614 40.8173Z" fill="white"/>
<path d="M204.04 40.8173C203.099 40.8234 202.16 40.7003 201.251 40.4514C200.44 40.2369 199.676 39.8715 198.996 39.3738C198.899 39.3141 198.814 39.2355 198.747 39.1423C198.68 39.0492 198.632 38.9434 198.605 38.8312C198.563 38.6333 198.588 38.4266 198.676 38.2451C198.716 38.16 198.772 38.0837 198.841 38.0209C198.91 37.9581 198.991 37.9099 199.078 37.8792C199.257 37.817 199.462 37.8618 199.691 38.0149C200.285 38.4632 200.955 38.7964 201.668 38.998C202.442 39.2049 203.24 39.3054 204.04 39.2966C205.276 39.2966 206.192 39.0631 206.789 38.596C207.074 38.3843 207.305 38.1054 207.461 37.7834C207.617 37.4613 207.694 37.1056 207.685 36.7468C207.695 36.4684 207.642 36.1914 207.53 35.9373C207.417 35.6832 207.249 35.4589 207.037 35.2821C206.604 34.9204 205.88 34.635 204.864 34.426L202.723 33.9867C201.433 33.7079 200.468 33.2517 199.829 32.6178C199.191 31.984 198.872 31.1374 198.872 30.078C198.855 29.2595 199.089 28.4558 199.541 27.7783C200.01 27.1011 200.656 26.5702 201.405 26.2452C202.276 25.867 203.217 25.6816 204.164 25.7014C204.984 25.6947 205.8 25.8181 206.583 26.0672C207.319 26.3049 208.007 26.6768 208.611 27.1648C208.787 27.2919 208.909 27.4824 208.951 27.6974C208.987 27.8874 208.954 28.0844 208.858 28.2512C208.815 28.331 208.756 28.4011 208.685 28.4569C208.614 28.5128 208.533 28.5533 208.446 28.576C208.268 28.6245 208.055 28.576 207.809 28.4192C207.298 28.0072 206.716 27.6954 206.093 27.4996C205.46 27.3121 204.803 27.2199 204.143 27.2258C203.062 27.2258 202.197 27.4805 201.549 27.9899C201.24 28.2227 200.991 28.5277 200.822 28.879C200.654 29.2304 200.572 29.6177 200.582 30.0083C200.582 30.677 200.786 31.2067 201.195 31.5974C201.603 31.9882 202.263 32.2731 203.175 32.4523L205.317 32.9128C206.706 33.2056 207.732 33.6482 208.394 34.2406C209.057 34.8329 209.39 35.6376 209.393 36.6547C209.407 37.4309 209.181 38.192 208.745 38.83C208.276 39.4857 207.633 39.9927 206.892 40.2921C206.09 40.6422 205.139 40.8173 204.04 40.8173Z" fill="white"/>
</svg>
