<svg width="102" height="49" viewBox="0 0 102 49" fill="none" xmlns="http://www.w3.org/2000/svg">
<path d="M14.8652 14.27C14.8652 13.0535 15.3069 12.0934 16.1903 11.3896C17.0737 10.6858 18.2771 10.3346 19.8006 10.336H22.3878V9.27382C22.3904 9.07289 22.3432 8.87444 22.2504 8.69625C22.1575 8.51806 22.0218 8.36571 21.8556 8.25286C21.4274 7.97146 20.9204 7.83445 20.4088 7.86185C19.9452 7.84536 19.4849 7.94623 19.0707 8.1551C18.9098 8.23527 18.7664 8.34666 18.6489 8.48279C18.5314 8.61891 18.4422 8.77704 18.3865 8.94798H15.2345C15.3135 8.41881 15.5022 7.91198 15.7884 7.45998C16.0755 7.01309 16.4493 6.62826 16.8876 6.32824C17.3653 6.00365 17.8939 5.76135 18.4516 5.61139C19.0888 5.43907 19.7466 5.35502 20.4067 5.36158C21.1304 5.35328 21.8516 5.44837 22.5485 5.64398C23.144 5.81151 23.7046 6.08446 24.2038 6.44988C24.6462 6.77477 25.01 7.19496 25.2682 7.67938C25.5262 8.17539 25.6569 8.72779 25.6483 9.28685V17.5414H22.5398V15.1519H22.3487C22.3092 15.5349 22.1865 15.9047 21.9891 16.2352C21.7917 16.5658 21.5245 16.8493 21.206 17.0657C20.5471 17.5277 19.7101 17.7594 18.6949 17.7608C17.5219 17.7608 16.5907 17.4487 15.9014 16.8246C15.2121 16.2004 14.8667 15.3489 14.8652 14.27ZM20.0178 15.2497C20.6248 15.2757 21.2239 15.1042 21.7252 14.7609C21.9305 14.6234 22.0984 14.4371 22.214 14.2188C22.3297 14.0004 22.3894 13.7568 22.3878 13.5097V12.2933H19.8006C19.362 12.2705 18.9298 12.4053 18.582 12.6734C18.4272 12.8069 18.3055 12.9744 18.2263 13.1629C18.1472 13.3513 18.1128 13.5555 18.1258 13.7595C18.1167 13.9681 18.1561 14.1759 18.2409 14.3666C18.3257 14.5573 18.4536 14.7258 18.6145 14.8587C19.0222 15.1497 19.518 15.2909 20.0178 15.2584V15.2497Z" fill="white"/>
<path d="M34.2587 1.20605V13.4011C34.2413 13.5624 34.2602 13.7255 34.314 13.8785C34.3678 14.0315 34.4553 14.1705 34.5699 14.2853C34.6844 14.4001 34.8233 14.4878 34.9762 14.5419C35.1291 14.596 35.2922 14.6152 35.4535 14.598H39.042V17.5327H35.132C33.8417 17.5327 32.8279 17.1663 32.0908 16.4336C31.3537 15.7008 30.9873 14.6871 30.9917 13.3924V4.14077H27.2988V1.20605H34.2587Z" fill="white"/>
<path d="M46.7594 1.20605V13.4011C46.7419 13.5626 46.7608 13.7259 46.8147 13.8791C46.8687 14.0323 46.9563 14.1714 47.0712 14.2862C47.186 14.4011 47.3251 14.4887 47.4783 14.5426C47.6315 14.5966 47.7948 14.6155 47.9563 14.598H51.5427V17.5327H47.6326C46.3423 17.5327 45.3286 17.1663 44.5915 16.4336C43.8543 15.7008 43.4923 14.6871 43.5053 13.3924V4.14077H39.8125V1.20605H46.7594Z" fill="white"/>
<path d="M63.0664 14.585H67.3132V8.51792H63.6203V5.58103H70.3543V14.585H73.7235V17.5415H63.0794L63.0664 14.585ZM66.6615 2.08153C66.6523 1.87558 66.6875 1.67007 66.7647 1.47893C66.8419 1.28778 66.9593 1.11547 67.109 0.973676C67.4348 0.687205 67.8595 0.539133 68.2929 0.560947H68.9445C69.3784 0.539484 69.8037 0.687475 70.1306 0.973676C70.2798 1.11567 70.3968 1.28806 70.4736 1.4792C70.5505 1.67033 70.5853 1.87574 70.5759 2.08153C70.5846 2.28832 70.5485 2.49455 70.4701 2.68612C70.3918 2.8777 70.273 3.0501 70.1219 3.19155C69.7879 3.48029 69.355 3.62824 68.9141 3.60428H68.2842C67.8494 3.62724 67.4229 3.47909 67.0959 3.19155C66.9485 3.04826 66.8334 2.87506 66.7585 2.68359C66.6835 2.49213 66.6505 2.28684 66.6615 2.08153Z" fill="white"/>
<path d="M75.5918 17.5414V5.581H78.6786V7.64682H78.8958C78.9308 7.31502 79.0339 6.99402 79.1988 6.70395C79.3636 6.41387 79.5866 6.16099 79.8538 5.96115C80.3896 5.56145 81.0927 5.36233 81.963 5.36378C83.1795 5.36378 84.1396 5.76202 84.8434 6.55852C85.5472 7.35501 85.8984 8.44114 85.897 9.8169V17.5349H82.6386V10.1427C82.654 9.88142 82.6167 9.61967 82.529 9.37302C82.4413 9.12638 82.305 8.89985 82.1281 8.70688C81.7468 8.37073 81.256 8.18527 80.7476 8.18527C80.2393 8.18527 79.7485 8.37073 79.3672 8.70688C79.1895 8.8995 79.0524 9.12586 78.964 9.37253C78.8755 9.61919 78.8376 9.88112 78.8523 10.1427V17.5284L75.5918 17.5414Z" fill="white"/>
<path d="M3.08933 8.9783C4.36372 8.9783 4.95747 8.38455 4.87058 7.19705L4.65335 3.78227C4.61702 3.24369 4.69094 2.70337 4.87058 2.19435C5.03849 1.74503 5.31103 1.34217 5.66563 1.01916C6.03656 0.683611 6.47292 0.428453 6.94726 0.269727C7.49059 0.0890737 8.0604 0.000958074 8.63293 0.00905643H10.1122V2.50063H9.00221C8.56545 2.47295 8.13341 2.6041 7.78575 2.86992C7.49466 3.11538 7.36433 3.50856 7.39257 4.04294L7.60979 7.45772C7.64847 7.81287 7.60491 8.17216 7.48249 8.50778C7.36007 8.8434 7.16207 9.14636 6.90381 9.3932C6.33633 9.89189 5.60426 10.1627 4.84886 10.1535V10.2621C5.71776 10.2911 6.40636 10.5554 6.91467 11.055C7.1693 11.3109 7.36377 11.6203 7.484 11.9607C7.60423 12.3011 7.6472 12.664 7.60979 13.023L7.39257 16.4161C7.368 16.62 7.39155 16.8268 7.46134 17.02C7.53113 17.2131 7.64521 17.3872 7.79444 17.5283C8.13029 17.8112 8.56161 17.955 9.00004 17.9302H10.1101V20.4522H8.63293C8.06315 20.4592 7.49647 20.3673 6.95812 20.1806C6.47463 20.0173 6.03067 19.7546 5.65476 19.4095C5.29574 19.0708 5.01992 18.6538 4.84886 18.1908C4.65968 17.6774 4.58552 17.1286 4.63163 16.5834L4.84886 13.2772C4.8923 12.6849 4.77283 12.236 4.49043 11.9304C4.20804 11.6263 3.73232 11.4721 3.06761 11.4721H0.5V8.9783H3.08933Z" fill="#06F395"/>
<path d="M90.8945 20.4588V17.9368H92.0024C92.443 17.9634 92.8788 17.8325 93.2319 17.5675C93.5295 17.322 93.6663 16.9375 93.6337 16.4162L93.4165 13.0014C93.3571 12.189 93.5852 11.5438 94.1008 11.0659C94.6683 10.5672 95.4003 10.2964 96.1557 10.3056V10.197C95.3906 10.2092 94.6504 9.92511 94.0899 9.40416C93.8366 9.14808 93.6444 8.83805 93.5278 8.49724C93.4112 8.15644 93.3732 7.79368 93.4165 7.43609L93.6337 4.04303C93.6605 3.83382 93.637 3.62124 93.5653 3.42291C93.4935 3.22458 93.3755 3.04622 93.221 2.90259C92.8794 2.62096 92.4446 2.47758 92.0024 2.50073H90.8945V0.00046065H92.3956C92.9611 -0.00736413 93.5237 0.0845524 94.0573 0.271993C94.5321 0.438803 94.9676 0.701267 95.3368 1.04314C95.693 1.37944 95.9679 1.79249 96.1405 2.25092C96.3277 2.76104 96.3982 3.30659 96.3469 3.84753L96.1297 7.17542C96.0862 7.76845 96.2057 8.21593 96.4881 8.51136C96.7705 8.80679 97.2462 8.94581 97.9131 8.94581H100.5V11.4569H97.9174C96.6416 11.4569 96.0471 12.0587 96.134 13.2621L96.3512 16.6551C96.3874 17.1894 96.3135 17.7255 96.134 18.23C95.9692 18.6872 95.7017 19.1004 95.352 19.4378C94.9849 19.7822 94.5467 20.0417 94.0682 20.1981C93.529 20.3771 92.9637 20.4652 92.3956 20.4588H90.8945Z" fill="#06F395"/>
<path d="M12.213 46.0078L5.43056 38.5513C4.72068 37.7598 4.16512 37.079 3.76389 36.5091C3.36265 35.9234 3.07716 35.3693 2.90741 34.8468C2.73765 34.3244 2.65278 33.7545 2.65278 33.1371C2.65278 32.1239 2.84568 31.2769 3.23148 30.5962C3.61728 29.8996 4.22685 29.3693 5.06018 29.0052C5.90895 28.641 6.99691 28.459 8.32407 28.459C8.84876 28.459 9.41975 28.4906 10.037 28.554C10.6543 28.6015 11.2022 28.6569 11.6806 28.7202V31.0949C11.3719 31.0632 10.9784 31.0236 10.5 30.9761C10.0216 30.9286 9.55093 30.897 9.08796 30.8811C8.625 30.8495 8.24691 30.8337 7.9537 30.8337C6.91975 30.8337 6.20216 31.0395 5.80093 31.4511C5.39969 31.8627 5.19907 32.4563 5.19907 33.2321C5.19907 33.8811 5.34568 34.4827 5.63889 35.0368C5.94753 35.5909 6.42593 36.2242 7.07407 36.9366L15.338 46.0078H12.213ZM6.54167 46.459C5.33796 46.459 4.28086 46.2215 3.37037 45.7466C2.45988 45.2717 1.75 44.6305 1.24074 43.8231C0.746914 42.9999 0.5 42.0896 0.5 41.0922V40.7598C0.5 39.6041 0.808642 38.583 1.42593 37.6965C2.05864 36.8099 2.85339 36.1133 3.81018 35.6067L5.08333 37.3403C4.49691 37.6569 4.0108 38.1318 3.625 38.7651C3.25463 39.3825 3.06944 40.079 3.06944 40.8548C3.06944 41.5355 3.21605 42.1213 3.50926 42.612C3.8179 43.1028 4.24228 43.4748 4.78241 43.7281C5.32253 43.9814 5.9321 44.1081 6.61111 44.1081C7.62963 44.1081 8.52469 43.8231 9.2963 43.2532C10.0833 42.6674 10.6929 41.7888 11.125 40.6173C11.5571 39.4458 11.7731 37.9656 11.7731 36.1767H14.1806C14.1806 37.7914 14.0031 39.2321 13.6481 40.4986C13.2932 41.7651 12.7762 42.8416 12.0972 43.7281C11.4336 44.6147 10.6312 45.2954 9.68981 45.7703C8.74846 46.2294 7.69907 46.459 6.54167 46.459ZM9.25 36.5566V34.4194H15.5V36.5566H9.25Z" fill="white"/>
<path d="M71.1828 31.1914C70.1563 31.1901 69.1408 31.4063 68.2012 31.8261C68.6293 32.5511 69.0562 33.2779 69.4818 34.0063C70.6162 33.5848 71.8631 33.599 72.9879 34.0461C73.3964 33.3119 73.8049 32.5789 74.2134 31.8472C73.2604 31.4131 72.2273 31.1896 71.1828 31.1914Z" fill="#199AD6"/>
<path d="M75.5985 32.6711C75.1696 33.3921 74.7403 34.1122 74.3105 34.8314C75.2676 35.6241 75.8969 36.7524 76.074 37.9935L78.552 37.8915C78.4406 36.8616 78.1208 35.8662 77.6126 34.9679C77.1043 34.0695 76.4186 33.2876 75.5985 32.6711Z" fill="#69C7B9"/>
<path d="M68.0069 34.8762L66.6686 32.7495C65.1737 33.9156 64.1724 35.6162 63.8685 37.5054C63.5646 39.3945 63.9808 41.3303 65.0326 42.9189L66.9505 41.3011C66.3431 40.2774 66.1158 39.067 66.3095 37.8881C66.5032 36.7092 67.1051 35.6394 68.0069 34.8712V34.8762Z" fill="#D61B5E"/>
<path d="M76.0365 39.6697C75.8736 40.5258 75.4938 41.324 74.9345 41.9857C74.3752 42.6473 73.6558 43.1495 72.8472 43.4428C72.0385 43.7361 71.1686 43.8104 70.3231 43.6583C69.4775 43.5062 68.6857 43.1329 68.0255 42.5754L66.1309 44.2242C67.1263 45.1657 68.3577 45.811 69.6901 46.0892C71.0226 46.3675 72.4048 46.2681 73.6853 45.8019C74.9658 45.3357 76.0954 44.5207 76.9502 43.4461C77.8049 42.3715 78.3521 41.0788 78.5316 39.7095L76.0365 39.6697Z" fill="#BF9CC9"/>
<path d="M30.315 46.2764C28.8877 46.2764 27.6663 45.9695 26.6507 45.3556C25.6323 44.7409 24.8184 43.8307 24.3137 42.7423C23.7704 41.614 23.4992 40.2692 23.5 38.7079C23.5 37.1607 23.7712 35.8225 24.3137 34.6934C24.8191 33.6055 25.6329 32.6955 26.6507 32.0801C27.6654 31.4671 28.8868 31.1605 30.315 31.1605C31.1392 31.1559 31.9591 31.2818 32.7451 31.5338C33.4696 31.7613 34.1465 32.1228 34.7414 32.6003C34.8446 32.6643 34.9336 32.7493 35.0028 32.8499C35.072 32.9506 35.1199 33.0648 35.1434 33.1852C35.181 33.3914 35.1403 33.6044 35.0294 33.7813C34.9779 33.8655 34.9105 33.9385 34.8309 33.9959C34.7514 34.0534 34.6614 34.0942 34.5662 34.116C34.3676 34.1641 34.1446 34.0978 33.8971 33.9169C32.9224 33.123 31.7422 32.726 30.3566 32.726C28.7226 32.726 27.4734 33.2487 26.6091 34.294C25.7447 35.3393 25.3105 36.8106 25.3064 38.7079C25.3064 40.616 25.7386 42.0935 26.6029 43.1405C27.4673 44.1875 28.7165 44.7101 30.3505 44.7085C31.7394 44.7085 32.9334 44.304 33.9326 43.4952C34.1777 43.3284 34.402 43.2649 34.6017 43.3073C34.6947 43.3244 34.7831 43.3612 34.8612 43.4152C34.9393 43.4692 35.0054 43.5393 35.0551 43.6208C35.158 43.7894 35.198 43.9899 35.1679 44.1858C35.1293 44.4135 35.0032 44.6163 34.8174 44.7495C34.2159 45.258 33.5241 45.6449 32.7794 45.8894C31.9835 46.1512 31.1515 46.2819 30.315 46.2764Z" fill="white"/>
<path d="M47.893 31.2014C47.3293 31.2014 47.0479 31.5013 47.0487 32.1011V37.8715H40.4874C40.2924 37.8715 40.1054 37.9501 39.9675 38.0902C39.8296 38.2302 39.7521 38.4201 39.7521 38.6181C39.7521 38.8161 39.8296 39.0061 39.9675 39.1461C40.1054 39.2861 40.2924 39.3648 40.4874 39.3648H47.0536V45.3442C47.0536 45.9432 47.335 46.2427 47.8979 46.2427C48.4608 46.2427 48.7419 45.9432 48.7411 45.3442V32.1011C48.7378 31.5013 48.4551 31.2014 47.893 31.2014ZM37.4948 31.2014C36.9318 31.2014 36.6504 31.5013 36.6504 32.1011V45.3355C36.6504 45.9345 36.9318 46.2339 37.4948 46.2339C38.0438 46.2339 38.3248 45.9486 38.3379 45.3778H38.2815V33.307H38.3391V32.1011C38.3391 31.5013 38.0577 31.2014 37.4948 31.2014Z" fill="white"/>
<path d="M63.4771 45.063L57.7945 31.9755C57.7149 31.7386 57.5677 31.5311 57.3717 31.3794C57.2054 31.2626 57.0078 31.2005 56.8055 31.2014C56.3529 31.2014 56.0167 31.4594 55.797 31.9755L50.1352 45.063C49.9832 45.3948 49.9694 45.6735 50.0935 45.8992C50.2177 46.1249 50.4444 46.2364 50.7737 46.234C51.1707 46.234 51.4796 45.9759 51.7002 45.4599L52.5666 43.3979C52.8934 42.5774 53.2373 41.7441 53.5984 40.8979C53.8256 40.3694 54.0531 39.8493 54.281 39.3374L56.7847 33.3555H56.8264L59.971 40.8817H55.531C55.3563 40.8815 55.1878 40.9475 55.0584 41.0667C54.929 41.1859 54.848 41.3497 54.8313 41.5263V41.5413C54.8217 41.6404 54.8327 41.7404 54.8635 41.835C54.8943 41.9295 54.9443 42.0165 55.0102 42.0902C55.0761 42.164 55.1565 42.2229 55.2462 42.2631C55.3359 42.3034 55.433 42.3241 55.531 42.324H60.5752L61.9134 45.4599C61.9877 45.6793 62.1139 45.8767 62.281 46.0348C62.449 46.1737 62.6615 46.2446 62.8779 46.234C63.2046 46.234 63.4244 46.1224 63.5372 45.8992C63.6475 45.6765 63.6278 45.3977 63.4771 45.063Z" fill="white"/>
<path d="M85.1144 46.2763C84.1722 46.2825 83.2336 46.1594 82.3239 45.9104C81.5136 45.6957 80.7494 45.3303 80.0702 44.8327C79.9727 44.7732 79.8878 44.6946 79.8205 44.6015C79.7531 44.5083 79.7047 44.4025 79.6781 44.2902C79.6358 44.0921 79.6614 43.8854 79.7504 43.7041C79.79 43.6189 79.8459 43.5427 79.915 43.4799C79.984 43.417 80.0647 43.3689 80.1523 43.3382C80.3304 43.276 80.5347 43.3212 80.7651 43.4738C81.3589 43.9221 82.029 44.2554 82.7418 44.4569C83.5159 44.6639 84.3139 44.7644 85.1144 44.7556C86.3496 44.7556 87.2659 44.5221 87.8631 44.055C88.1485 43.8433 88.3791 43.5644 88.5352 43.2423C88.6912 42.9203 88.768 42.5646 88.759 42.2058C88.7695 41.9273 88.7164 41.6501 88.6037 41.396C88.491 41.1418 88.3218 40.9177 88.1095 40.7411C87.6781 40.3794 86.9542 40.094 85.9379 39.885L83.797 39.4457C82.5069 39.1669 81.5425 38.7106 80.9036 38.0768C80.2647 37.443 79.9461 36.5939 79.9477 35.5295C79.9304 34.711 80.1642 33.9073 80.6168 33.2298C81.0864 32.5557 81.7313 32.0275 82.4795 31.7042C83.351 31.326 84.2918 31.1406 85.2394 31.1604C86.0596 31.1537 86.8758 31.2771 87.6585 31.5262C88.3946 31.7638 89.0819 32.1358 89.6867 32.6238C89.8617 32.7517 89.9829 32.9419 90.0261 33.1564C90.0622 33.3464 90.0291 33.5432 89.933 33.7102C89.8899 33.79 89.8311 33.8601 89.7603 33.9159C89.6894 33.9718 89.6081 34.0123 89.5212 34.035C89.3431 34.0839 89.1303 34.0316 88.8827 33.8782C88.372 33.4661 87.7902 33.1543 87.167 32.9585C86.5338 32.7712 85.8769 32.679 85.2173 32.6848C84.1323 32.6848 83.2675 32.9391 82.6229 33.4476C82.3136 33.6802 82.0641 33.9851 81.8956 34.3365C81.727 34.6879 81.6444 35.0753 81.6548 35.466C81.6548 36.1347 81.859 36.6644 82.2675 37.0552C82.676 37.4459 83.3366 37.7313 84.2492 37.9113L86.3913 38.3717C87.7802 38.6646 88.8059 39.1072 89.4685 39.6995C90.1311 40.2919 90.464 41.0966 90.4673 42.1137C90.4815 42.8899 90.2547 43.651 89.819 44.2889C89.3501 44.9446 88.7076 45.4517 87.9661 45.7511C87.1638 46.1012 86.2132 46.2763 85.1144 46.2763Z" fill="white"/>
<path d="M96.5412 46.2763C95.5995 46.2824 94.6613 46.1593 93.752 45.9104C92.9412 45.6959 92.1766 45.3305 91.4971 44.8327C91.3998 44.7731 91.3151 44.6944 91.248 44.6013C91.1809 44.5082 91.1327 44.4024 91.1062 44.2902C91.0636 44.0923 91.0886 43.8856 91.1773 43.7041C91.2168 43.6189 91.2728 43.5427 91.3418 43.4799C91.4109 43.417 91.4916 43.3689 91.5792 43.3382C91.7581 43.276 91.9628 43.3208 92.192 43.4738C92.7858 43.9221 93.4559 44.2554 94.1687 44.4569C94.9428 44.6639 95.7408 44.7644 96.5412 44.7556C97.7765 44.7556 98.6928 44.5221 99.29 44.055C99.5754 43.8433 99.806 43.5644 99.962 43.2423C100.118 42.9203 100.195 42.5646 100.186 42.2058C100.196 41.9274 100.143 41.6503 100.031 41.3962C99.9184 41.1422 99.7496 40.9179 99.5376 40.7411C99.1054 40.3794 98.3811 40.094 97.3648 39.885L95.2238 39.4457C93.9338 39.1669 92.9693 38.7106 92.3305 38.0768C91.6916 37.443 91.3725 36.5964 91.3733 35.537C91.3561 34.7185 91.5899 33.9148 92.0425 33.2373C92.5112 32.5601 93.1568 32.0292 93.9064 31.7042C94.7775 31.3259 95.7179 31.1406 96.665 31.1604C97.4852 31.1537 98.3014 31.2771 99.0841 31.5262C99.8203 31.7638 100.508 32.1358 101.112 32.6238C101.288 32.7509 101.41 32.9414 101.452 33.1564C101.488 33.3464 101.455 33.5434 101.359 33.7102C101.316 33.79 101.257 33.8601 101.186 33.9159C101.115 33.9718 101.034 34.0123 100.947 34.035C100.769 34.0835 100.556 34.035 100.31 33.8782C99.7989 33.4662 99.2171 33.1544 98.5939 32.9586C97.9607 32.7711 97.3038 32.6789 96.6442 32.6848C95.5625 32.6848 94.6977 32.9395 94.0498 33.4488C93.7408 33.6817 93.4916 33.9866 93.3233 34.338C93.155 34.6894 93.0725 35.0767 93.0829 35.4673C93.0829 36.136 93.2872 36.6657 93.6956 37.0564C94.1041 37.4472 94.7643 37.7321 95.676 37.9113L97.8182 38.3718C99.2071 38.6646 100.233 39.1072 100.895 39.6995C101.558 40.2919 101.891 41.0966 101.894 42.1137C101.908 42.8899 101.682 43.651 101.246 44.2889C100.777 44.9446 100.134 45.4517 99.393 45.7511C98.5907 46.1012 97.6401 46.2763 96.5412 46.2763Z" fill="white"/>
</svg>
