<svg xmlns="http://www.w3.org/2000/svg" width="100" height="133" viewBox="0 0 100 133" fill="none">
  <path d="M10.3628 21.877H88.6602V110.537H49.2236H10.3628V21.877Z" fill="url(#paint0_linear_3505_1468)"/>
  <path d="M45.2578 30.6997C47.4868 28.4278 48.711 25.3166 48.8462 21.2575L48.8784 20.2908L49.8456 20.2908L50.3769 20.2908L51.3892 20.2908L51.3768 21.303C51.3347 24.7473 52.566 28.0853 54.8334 30.6756C55.9322 31.8217 57.2787 32.7006 58.7697 33.2449C60.2671 33.7916 61.8701 33.9861 63.4547 33.8134L63.477 33.811L63.4995 33.8096L80.2026 32.7461L80.2133 32.7454L80.2133 32.7455C83.0013 32.598 85.2906 33.2705 86.7686 35.0246L86.784 35.0429L86.7985 35.0619C88.2386 36.947 88.9523 39.2875 88.8102 41.6552L88.8102 46.0588L98.9975 46.0588L98.9975 39.8165L98.9975 39.8024L98.9976 39.8024C99.0356 37.1117 98.6219 34.4337 97.7738 31.8802C97.0413 29.6897 95.864 27.6745 94.3161 25.9614C92.8452 24.3457 91.0116 23.1034 88.9666 22.337C86.6076 21.505 84.104 21.1629 81.6086 21.3314L81.6047 21.3316L64.9111 22.3945C64.9095 22.3946 64.9079 22.3947 64.9063 22.3948C61.8394 22.6185 59.3275 21.9758 57.596 20.2428C55.8789 18.5241 55.1253 15.9261 55.1253 12.6766L55.1253 0.999998L44.9273 0.999998L44.9273 12.5703C44.9273 15.9421 44.1507 18.61 42.3661 20.2685L42.3644 20.2701C40.5929 21.9088 38.0799 22.5118 35.0282 22.2884C35.0269 22.2883 35.0256 22.2882 35.0244 22.2881L18.8601 21.2251L18.8508 21.2245L18.8414 21.2237C16.3204 21.0104 13.7832 21.3535 11.4091 22.2289L45.2578 30.6997ZM45.2578 30.6997C44.1119 31.8397 42.7272 32.7104 41.2039 33.2489C39.6789 33.788 38.0531 33.9807 36.4445 33.8129L36.4246 33.8109L36.4047 33.8096L19.8348 32.7478C18.6916 32.6145 17.5329 32.7488 16.4501 33.1403C15.3583 33.5352 14.3742 34.1806 13.5768 35.0248L13.5571 35.0456L13.5386 35.0676C11.9967 36.8997 11.2102 39.2503 11.338 41.6413L11.338 46.0481L1.00194 46.0481L1.00201 39.8165L1.00186 39.8041C0.968718 37.1303 1.39949 34.4709 2.27501 31.9446L2.27759 31.9369C3.03117 29.7041 4.24272 27.6537 5.83443 25.9173C7.38398 24.2744 9.29178 23.0122 11.4089 22.229L45.2578 30.6997Z" fill="#121212" stroke="white" stroke-width="2"/>
  <path d="M54.7422 101.565C52.5132 103.837 51.289 106.948 51.1538 111.007L51.1216 111.974L50.1544 111.974L49.6231 111.974L48.6108 111.974L48.6232 110.962C48.6653 107.517 47.434 104.179 45.1666 101.589C44.0678 100.443 42.7212 99.564 41.2303 99.0197C39.7329 98.473 38.1299 98.2785 36.5453 98.4512L36.523 98.4536L36.5005 98.4551L19.7974 99.5186L19.7867 99.5192L19.7867 99.5192C16.9987 99.6666 14.7094 98.9942 13.2314 97.24L13.216 97.2217L13.2015 97.2027C11.7614 95.3176 11.0477 92.9772 11.1898 90.6094L11.1898 86.2059L1.0025 86.2059L1.0025 92.4481L1.0025 92.4623L1.0024 92.4623C0.964374 95.153 1.37807 97.8309 2.22623 100.384C2.95873 102.575 4.13597 104.59 5.68392 106.303C7.15479 107.919 8.98845 109.161 11.0334 109.928C13.3924 110.76 15.896 111.102 18.3914 110.933L18.3953 110.933L35.0889 109.87C35.0905 109.87 35.0921 109.87 35.0937 109.87C38.1606 109.646 40.6725 110.289 42.404 112.022C44.1211 113.74 44.8747 116.339 44.8747 119.588L44.8747 131.265L55.0727 131.265L55.0727 119.694C55.0727 116.323 55.8493 113.655 57.6339 111.996L57.6356 111.994C59.4071 110.356 61.9201 109.753 64.9718 109.976C64.9731 109.976 64.9743 109.976 64.9756 109.977L81.1399 111.039L81.1492 111.04L81.1586 111.041C83.6796 111.254 86.2168 110.911 88.5909 110.036L54.7422 101.565ZM54.7422 101.565C55.8881 100.425 57.2728 99.5543 58.7961 99.0158C60.3211 98.4766 61.9469 98.284 63.5555 98.4517L63.5754 98.4538L63.5953 98.455L80.1652 99.5168C81.3084 99.6502 82.4671 99.5159 83.5499 99.1243C84.6417 98.7294 85.6258 98.084 86.4232 97.2399L86.4429 97.219L86.4614 97.1971C88.0033 95.365 88.7898 93.0144 88.662 90.6234L88.662 86.2165L98.9981 86.2165L98.998 92.4481L98.9981 92.4605C99.0313 95.1344 98.6005 97.7937 97.725 100.32L97.7224 100.328C96.9688 102.561 95.7573 104.611 94.1656 106.347C92.616 107.99 90.7082 109.252 88.591 110.036L54.7422 101.565Z" fill="#121212" stroke="white" stroke-width="2"/>
  <defs>
    <linearGradient id="paint0_linear_3505_1468" x1="49.5115" y1="21.877" x2="49.5115" y2="110.537" gradientUnits="userSpaceOnUse">
      <stop stop-color="#06F395"/>
      <stop offset="1" stop-color="#1F44D2"/>
    </linearGradient>
  </defs>
</svg>