<svg width="210" height="67" viewBox="0 0 210 67" fill="none" xmlns="http://www.w3.org/2000/svg">
<path d="M47.6825 25.7326C46.656 25.7313 45.6405 25.9474 44.7009 26.3672C45.129 27.0923 45.5559 27.819 45.9816 28.5474C47.1159 28.1259 48.3629 28.1401 49.4877 28.5872C49.8962 27.853 50.3047 27.1201 50.7132 26.3884C49.7601 25.9543 48.7271 25.7307 47.6825 25.7326Z" fill="#199AD6"/>
<path d="M52.098 27.2122C51.6691 27.9331 51.2398 28.6532 50.8101 29.3725C51.7671 30.1651 52.3964 31.2935 52.5735 32.5345L55.0515 32.4325C54.9402 31.4026 54.6203 30.4072 54.1121 29.5089C53.6038 28.6105 52.9181 27.8286 52.098 27.2122Z" fill="#69C7B9"/>
<path d="M44.5061 29.4172L43.1679 27.2905C41.673 28.4566 40.6717 30.1572 40.3678 32.0464C40.0638 33.9356 40.4801 35.8713 41.5319 37.4599L43.4498 35.8421C42.8424 34.8184 42.6151 33.608 42.8088 32.4291C43.0025 31.2503 43.6044 30.1804 44.5061 29.4123V29.4172Z" fill="#D61B5E"/>
<path d="M52.5355 34.2107C52.3726 35.0668 51.9928 35.865 51.4335 36.5267C50.8743 37.1883 50.1549 37.6905 49.3462 37.9839C48.5376 38.2772 47.6676 38.3514 46.8221 38.1993C45.9766 38.0472 45.1847 37.674 44.5245 37.1164L42.6299 38.7652C43.6253 39.7068 44.8567 40.352 46.1891 40.6303C47.5216 40.9085 48.9038 40.8091 50.1843 40.3429C51.4649 39.8767 52.5944 39.0617 53.4492 37.9871C54.304 36.9125 54.8511 35.6198 55.0306 34.2505L52.5355 34.2107Z" fill="#BF9CC9"/>
<path d="M6.81495 40.8174C5.38767 40.8174 4.16626 40.5105 3.15074 39.8966C2.13233 39.2819 1.31841 38.3717 0.813727 37.2833C0.270427 36.155 -0.000815153 34.8102 1.84008e-06 33.2489C1.84008e-06 31.7017 0.271244 30.3635 0.813727 29.2344C1.3191 28.1465 2.13286 27.2365 3.15074 26.6212C4.16544 26.0081 5.38685 25.7015 6.81495 25.7015C7.63919 25.6969 8.4591 25.8228 9.2451 26.0749C9.96963 26.3023 10.6465 26.6638 11.2414 27.1413C11.3446 27.2053 11.4336 27.2903 11.5028 27.3909C11.572 27.4916 11.6199 27.6058 11.6434 27.7262C11.681 27.9324 11.6403 28.1454 11.5294 28.3223C11.4779 28.4065 11.4105 28.4795 11.3309 28.537C11.2514 28.5944 11.1614 28.6352 11.0662 28.657C10.8676 28.7051 10.6446 28.6388 10.3971 28.4579C9.42239 27.664 8.24224 27.267 6.85662 27.267C5.22263 27.267 3.97345 27.7897 3.10907 28.835C2.24469 29.8803 1.81046 31.3516 1.80637 33.2489C1.80637 35.157 2.23856 36.6346 3.10294 37.6815C3.96732 38.7285 5.2165 39.2511 6.85049 39.2495C8.23938 39.2495 9.43342 38.845 10.4326 38.0362C10.6777 37.8694 10.902 37.806 11.1017 37.8483C11.1947 37.8654 11.2831 37.9022 11.3612 37.9562C11.4393 38.0102 11.5054 38.0803 11.5551 38.1619C11.658 38.3305 11.698 38.5309 11.6679 38.7268C11.6293 38.9545 11.5032 39.1573 11.3174 39.2905C10.7159 39.799 10.0241 40.1859 9.27941 40.4304C8.48355 40.6922 7.65152 40.8229 6.81495 40.8174Z" fill="white"/>
<path d="M24.3921 25.7424C23.8283 25.7424 23.5469 26.0423 23.5477 26.6421V32.4125H16.9864C16.7914 32.4125 16.6044 32.4912 16.4665 32.6312C16.3286 32.7712 16.2511 32.9611 16.2511 33.1591C16.2511 33.3572 16.3286 33.5471 16.4665 33.6871C16.6044 33.8271 16.7914 33.9058 16.9864 33.9058H23.5526V39.8852C23.5526 40.4842 23.8341 40.7837 24.397 40.7837C24.9599 40.7837 25.2409 40.4842 25.2401 39.8852V26.6421C25.2368 26.0423 24.9542 25.7424 24.3921 25.7424ZM13.9938 25.7424C13.4309 25.7424 13.1494 26.0423 13.1494 26.6421V39.8765C13.1494 40.4755 13.4309 40.775 13.9938 40.775C14.5428 40.775 14.8238 40.4896 14.8369 39.9188H14.7805V27.848H14.8381V26.6421C14.8381 26.0423 14.5567 25.7424 13.9938 25.7424Z" fill="white"/>
<path d="M39.9778 39.604L34.2952 26.5165C34.2156 26.2796 34.0684 26.0722 33.8725 25.9204C33.7061 25.8036 33.5085 25.7415 33.3063 25.7424C32.8537 25.7424 32.5175 26.0005 32.2977 26.5165L26.6359 39.604C26.484 39.9358 26.4701 40.2146 26.5943 40.4402C26.7184 40.6659 26.9452 40.7775 27.2744 40.775C27.6715 40.775 27.9803 40.517 28.2009 40.0009L29.0673 37.9389C29.3941 37.1185 29.7381 36.2851 30.0992 35.4389C30.3263 34.9105 30.5538 34.3903 30.7818 33.8784L33.2854 27.8965H33.3271L36.4717 35.4227H32.0318C31.8571 35.4225 31.6886 35.4885 31.5592 35.6077C31.4298 35.7269 31.3488 35.8908 31.332 36.0673V36.0823C31.3224 36.1814 31.3334 36.2815 31.3642 36.376C31.395 36.4706 31.445 36.5575 31.5109 36.6312C31.5769 36.705 31.6573 36.7639 31.747 36.8041C31.8367 36.8444 31.9337 36.8651 32.0318 36.865H37.0759L38.4141 40.0009C38.4884 40.2203 38.6147 40.4177 38.7818 40.5759C38.9497 40.7147 39.1623 40.7857 39.3786 40.775C39.7054 40.775 39.9252 40.6634 40.0379 40.4402C40.1482 40.2175 40.1286 39.9387 39.9778 39.604Z" fill="white"/>
<path d="M61.6139 40.8173C60.6717 40.8235 59.7331 40.7004 58.8234 40.4514C58.0131 40.2367 57.2489 39.8713 56.5698 39.3738C56.4722 39.3143 56.3873 39.2356 56.32 39.1425C56.2527 39.0493 56.2043 38.9435 56.1776 38.8312C56.1354 38.6332 56.1609 38.4264 56.2499 38.2451C56.2895 38.16 56.3454 38.0837 56.4145 38.0209C56.4835 37.9581 56.5642 37.9099 56.6519 37.8792C56.83 37.817 57.0342 37.8622 57.2646 38.0149C57.8584 38.4632 58.5285 38.7964 59.2413 38.998C60.0154 39.2049 60.8134 39.3054 61.6139 39.2966C62.8492 39.2966 63.7654 39.0631 64.3626 38.596C64.6481 38.3843 64.8786 38.1054 65.0347 37.7834C65.1907 37.4613 65.2675 37.1056 65.2585 36.7468C65.2691 36.4683 65.2159 36.1911 65.1032 35.937C64.9905 35.6828 64.8213 35.4587 64.609 35.2821C64.1776 34.9204 63.4537 34.635 62.4374 34.426L60.2965 33.9867C59.0064 33.7079 58.042 33.2517 57.4031 32.6178C56.7642 31.984 56.4456 31.1349 56.4472 30.0705C56.4299 29.252 56.6638 28.4484 57.1163 27.7708C57.5859 27.0967 58.2308 26.5685 58.9791 26.2452C59.8505 25.867 60.7913 25.6816 61.7389 25.7014C62.5591 25.6947 63.3753 25.8181 64.158 26.0672C64.8941 26.3049 65.5814 26.6768 66.1862 27.1648C66.3612 27.2927 66.4824 27.4829 66.5256 27.6974C66.5617 27.8874 66.5286 28.0842 66.4325 28.2512C66.3894 28.331 66.3306 28.4011 66.2598 28.4569C66.189 28.5128 66.1076 28.5533 66.0207 28.576C65.8426 28.6249 65.6298 28.5727 65.3822 28.4192C64.8715 28.0071 64.2897 27.6953 63.6666 27.4996C63.0333 27.3122 62.3764 27.22 61.7168 27.2258C60.6318 27.2258 59.7671 27.4801 59.1224 27.9886C58.8131 28.2212 58.5636 28.5261 58.3951 28.8775C58.2266 29.2289 58.144 29.6164 58.1543 30.0071C58.1543 30.6757 58.3586 31.2054 58.7671 31.5962C59.1756 31.9869 59.8361 32.2723 60.7487 32.4523L62.8908 32.9128C64.2797 33.2056 65.3055 33.6482 65.968 34.2406C66.6306 34.8329 66.9635 35.6376 66.9668 36.6547C66.981 37.4309 66.7542 38.192 66.3185 38.83C65.8497 39.4857 65.2071 39.9927 64.4656 40.2921C63.6633 40.6422 62.7127 40.8173 61.6139 40.8173Z" fill="white"/>
<path d="M73.0405 40.8173C72.0988 40.8234 71.1606 40.7003 70.2513 40.4514C69.4405 40.2369 68.6759 39.8715 67.9964 39.3738C67.8991 39.3141 67.8144 39.2355 67.7473 39.1423C67.6802 39.0492 67.632 38.9434 67.6055 38.8312C67.5628 38.6333 67.5879 38.4266 67.6765 38.2451C67.7161 38.16 67.7721 38.0837 67.8411 38.0209C67.9101 37.9581 67.9908 37.9099 68.0785 37.8792C68.2574 37.817 68.4621 37.8618 68.6912 38.0149C69.285 38.4632 69.9551 38.7964 70.668 38.998C71.4421 39.2049 72.2401 39.3054 73.0405 39.2966C74.2758 39.2966 75.1921 39.0631 75.7893 38.596C76.0747 38.3843 76.3053 38.1054 76.4613 37.7834C76.6173 37.4613 76.6941 37.1056 76.6851 36.7468C76.6956 36.4684 76.6426 36.1914 76.5301 35.9373C76.4177 35.6832 76.2488 35.4589 76.0368 35.2821C75.6046 34.9204 74.8804 34.635 73.864 34.426L71.7231 33.9867C70.4331 33.7079 69.4686 33.2517 68.8297 32.6178C68.1908 31.984 67.8718 31.1374 67.8726 30.078C67.8553 29.2595 68.0892 28.4558 68.5417 27.7783C69.0105 27.1011 69.656 26.5702 70.4057 26.2452C71.2767 25.867 72.2171 25.6816 73.1643 25.7014C73.9845 25.6947 74.8007 25.8181 75.5834 26.0672C76.3196 26.3049 77.0069 26.6768 77.6116 27.1648C77.7875 27.2919 77.9089 27.4824 77.951 27.6974C77.9877 27.8874 77.9546 28.0844 77.8579 28.2512C77.8148 28.331 77.756 28.4011 77.6852 28.4569C77.6144 28.5128 77.533 28.5533 77.4461 28.576C77.2684 28.6245 77.0552 28.576 76.8089 28.4192C76.2981 28.0072 75.7163 27.6954 75.0932 27.4996C74.4599 27.3121 73.803 27.2199 73.1434 27.2258C72.0617 27.2258 71.197 27.4805 70.5491 27.9899C70.2401 28.2227 69.9909 28.5277 69.8226 28.879C69.6542 29.2304 69.5718 29.6177 69.5822 30.0083C69.5822 30.677 69.7864 31.2067 70.1949 31.5974C70.6034 31.9882 71.2635 32.2731 72.1753 32.4523L74.3175 32.9128C75.7064 33.2056 76.7321 33.6482 77.3947 34.2406C78.0573 34.8329 78.3902 35.6376 78.3934 36.6547C78.4076 37.4309 78.1808 38.192 77.7452 38.83C77.2763 39.4857 76.6337 39.9927 75.8922 40.2921C75.0899 40.6422 74.1394 40.8173 73.0405 40.8173Z" fill="white"/>
<path d="M98.107 41.8076L91.3246 34.3511C90.6147 33.5596 90.0592 32.8788 89.6579 32.3089C89.2567 31.7232 88.9712 31.1691 88.8015 30.6467C88.6317 30.1242 88.5468 29.5543 88.5468 28.9369C88.5468 27.9237 88.7397 27.0767 89.1255 26.396C89.5113 25.6994 90.1209 25.1691 90.9542 24.805C91.803 24.4408 92.891 24.2588 94.2181 24.2588C94.7428 24.2588 95.3138 24.2905 95.9311 24.3538C96.5484 24.4013 97.0962 24.4567 97.5746 24.52V26.8947C97.266 26.863 96.8724 26.8234 96.394 26.7759C95.9156 26.7284 95.445 26.6968 94.982 26.681C94.519 26.6493 94.141 26.6335 93.8477 26.6335C92.8138 26.6335 92.0962 26.8393 91.695 27.2509C91.2937 27.6625 91.0931 28.2562 91.0931 29.0319C91.0931 29.681 91.2397 30.2825 91.5329 30.8366C91.8416 31.3907 92.32 32.024 92.9681 32.7364L101.232 41.8076H98.107ZM92.4357 42.2588C91.232 42.2588 90.1749 42.0213 89.2644 41.5464C88.3539 41.0715 87.644 40.4303 87.1348 39.6229C86.641 38.7997 86.394 37.8894 86.394 36.892V36.5596C86.394 35.4039 86.7027 34.3828 87.32 33.4963C87.9527 32.6097 88.7474 31.9131 89.7042 31.4065L90.9774 33.1401C90.391 33.4567 89.9048 33.9316 89.519 34.5649C89.1487 35.1823 88.9635 35.8788 88.9635 36.6546C88.9635 37.3353 89.1101 37.9211 89.4033 38.4118C89.7119 38.9026 90.1363 39.2746 90.6765 39.5279C91.2166 39.7812 91.8261 39.9079 92.5052 39.9079C93.5237 39.9079 94.4187 39.6229 95.1903 39.053C95.9774 38.4672 96.5869 37.5886 97.019 36.4171C97.4511 35.2456 97.6672 33.7654 97.6672 31.9765H100.075C100.075 33.5912 99.8971 35.0319 99.5422 36.2984C99.1873 37.5649 98.6703 38.6414 97.9913 39.5279C97.3277 40.4145 96.5252 41.0952 95.5839 41.5701C94.6425 42.0292 93.5931 42.2588 92.4357 42.2588ZM95.144 32.3564V30.2192H101.394V32.3564H95.144Z" fill="white"/>
<path d="M123.759 37.2994C123.759 36.083 124.201 35.1228 125.084 34.419C125.968 33.7152 127.171 33.364 128.695 33.3655H131.282V32.3032C131.284 32.1023 131.237 31.9039 131.144 31.7257C131.052 31.5475 130.916 31.3951 130.75 31.2823C130.321 31.0009 129.814 30.8639 129.303 30.8913C128.839 30.8748 128.379 30.9756 127.965 31.1845C127.804 31.2647 127.66 31.3761 127.543 31.5122C127.425 31.6483 127.336 31.8065 127.281 31.9774H124.129C124.208 31.4482 124.396 30.9414 124.682 30.4894C124.97 30.0425 125.343 29.6577 125.782 29.3577C126.259 29.0331 126.788 28.7908 127.346 28.6408C127.983 28.4685 128.641 28.3844 129.301 28.391C130.024 28.3827 130.746 28.4778 131.443 28.6734C132.038 28.8409 132.599 29.1139 133.098 29.4793C133.54 29.8042 133.904 30.2244 134.162 30.7088C134.42 31.2048 134.551 31.7572 134.542 32.3163V40.5708H131.434V38.1814H131.243C131.203 38.5643 131.081 38.9341 130.883 39.2647C130.686 39.5952 130.419 39.8787 130.1 40.0951C129.441 40.5571 128.604 40.7888 127.589 40.7902C126.416 40.7902 125.485 40.4782 124.795 39.854C124.106 39.2298 123.761 38.3783 123.759 37.2994ZM128.912 38.2791C129.519 38.3051 130.118 38.1337 130.619 37.7904C130.825 37.6528 130.992 37.4665 131.108 37.2482C131.224 37.0298 131.283 36.7862 131.282 36.5391V35.3227H128.695C128.256 35.2999 127.824 35.4347 127.476 35.7028C127.321 35.8363 127.199 36.0039 127.12 36.1923C127.041 36.3807 127.007 36.585 127.02 36.7889C127.011 36.9975 127.05 37.2053 127.135 37.396C127.22 37.5868 127.348 37.7552 127.509 37.8881C127.916 38.1791 128.412 38.3203 128.912 38.2878V38.2791Z" fill="white"/>
<path d="M143.153 24.2352V36.4303C143.136 36.5915 143.155 36.7547 143.209 36.9077C143.262 37.0607 143.35 37.1997 143.464 37.3145C143.579 37.4293 143.718 37.5169 143.871 37.5711C144.024 37.6252 144.187 37.6443 144.348 37.6272H147.937V40.5619H144.027C142.736 40.5619 141.722 40.1955 140.985 39.4627C140.248 38.73 139.882 37.7162 139.886 36.4216V27.1699H136.193V24.2352H143.153Z" fill="white"/>
<path d="M155.654 24.2352V36.4303C155.637 36.5917 155.656 36.7551 155.71 36.9082C155.763 37.0614 155.851 37.2006 155.966 37.3154C156.081 37.4302 156.22 37.5179 156.373 37.5718C156.526 37.6258 156.69 37.6447 156.851 37.6272H160.437V40.5619H156.527C155.237 40.5619 154.223 40.1955 153.486 39.4627C152.749 38.73 152.387 37.7162 152.4 36.4216V27.1699H148.707V24.2352H155.654Z" fill="white"/>
<path d="M171.961 37.6143H176.208V31.5472H172.515V28.6103H179.249V37.6143H182.618V40.5708H171.974L171.961 37.6143ZM175.556 25.1108C175.547 24.9049 175.582 24.6994 175.659 24.5082C175.737 24.3171 175.854 24.1448 176.004 24.003C176.33 23.7165 176.754 23.5684 177.188 23.5902H177.839C178.273 23.5688 178.698 23.7168 179.025 24.003C179.175 24.145 179.292 24.3174 179.368 24.5085C179.445 24.6996 179.48 24.905 179.471 25.1108C179.479 25.3176 179.443 25.5238 179.365 25.7154C179.287 25.907 179.168 26.0794 179.017 26.2208C178.683 26.5096 178.25 26.6575 177.809 26.6336H177.179C176.744 26.6565 176.318 26.5084 175.991 26.2208C175.843 26.0776 175.728 25.9044 175.653 25.7129C175.578 25.5214 175.545 25.3161 175.556 25.1108Z" fill="white"/>
<path d="M184.485 40.5706V28.6102H187.572V30.676H187.789C187.824 30.3442 187.927 30.0232 188.092 29.7331C188.257 29.443 188.48 29.1902 188.747 28.9903C189.283 28.5906 189.986 28.3915 190.856 28.393C192.073 28.393 193.033 28.7912 193.737 29.5877C194.441 30.3842 194.792 31.4703 194.79 32.8461V40.5641H191.532V33.1719C191.547 32.9106 191.51 32.6488 191.422 32.4022C191.335 32.1556 191.198 31.929 191.021 31.7361C190.64 31.3999 190.149 31.2144 189.641 31.2144C189.133 31.2144 188.642 31.3999 188.26 31.7361C188.083 31.9287 187.946 32.155 187.857 32.4017C187.769 32.6484 187.731 32.9103 187.746 33.1719V40.5576L184.485 40.5706Z" fill="white"/>
<path d="M111.983 32.0076C113.258 32.0076 113.852 31.4138 113.765 30.2263L113.547 26.8116C113.511 26.273 113.585 25.7327 113.765 25.2236C113.933 24.7743 114.205 24.3715 114.56 24.0485C114.931 23.7129 115.367 23.4577 115.841 23.299C116.385 23.1184 116.954 23.0303 117.527 23.0384H119.006V25.5299H117.896C117.459 25.5022 117.027 25.6334 116.68 25.8992C116.389 26.1447 116.258 26.5379 116.287 27.0722L116.504 30.487C116.543 30.8422 116.499 31.2015 116.377 31.5371C116.254 31.8727 116.056 32.1757 115.798 32.4225C115.23 32.9212 114.498 33.192 113.743 33.1828V33.2914C114.612 33.3204 115.3 33.5847 115.809 34.0843C116.063 34.3402 116.258 34.6496 116.378 34.99C116.498 35.3304 116.541 35.6933 116.504 36.0523L116.287 39.4454C116.262 39.6493 116.286 39.8561 116.355 40.0493C116.425 40.2424 116.539 40.4165 116.688 40.5576C117.024 40.8405 117.456 40.9843 117.894 40.9595H119.004V43.4815H117.527C116.957 43.4885 116.391 43.3966 115.852 43.2099C115.369 43.0466 114.925 42.7839 114.549 42.4388C114.19 42.1001 113.914 41.6831 113.743 41.2201C113.554 40.7067 113.48 40.1579 113.526 39.6127L113.743 36.3065C113.786 35.7142 113.667 35.2653 113.384 34.9597C113.102 34.6556 112.626 34.5013 111.962 34.5013H109.394V32.0076H111.983Z" fill="#06F395"/>
<path d="M199.788 43.4881V40.9661H200.896C201.337 40.9927 201.773 40.8618 202.126 40.5968C202.423 40.3513 202.56 39.9668 202.528 39.4455L202.31 36.0307C202.251 35.2183 202.479 34.5731 202.995 34.0952C203.562 33.5965 204.294 33.3257 205.05 33.3349V33.2263C204.284 33.2385 203.544 32.9544 202.984 32.4335C202.73 32.1774 202.538 31.8673 202.422 31.5265C202.305 31.1857 202.267 30.823 202.31 30.4654L202.528 27.0723C202.554 26.8631 202.531 26.6505 202.459 26.4522C202.387 26.2539 202.269 26.0755 202.115 25.9319C201.773 25.6503 201.338 25.5069 200.896 25.53H199.788V23.0298H201.289C201.855 23.0219 202.417 23.1138 202.951 23.3013C203.426 23.4681 203.861 23.7306 204.231 24.0724C204.587 24.4087 204.862 24.8218 205.034 25.2802C205.221 25.7903 205.292 26.3359 205.241 26.8768L205.023 30.2047C204.98 30.7977 205.099 31.2452 205.382 31.5407C205.664 31.8361 206.14 31.9751 206.807 31.9751H209.394V34.4862H206.811C205.535 34.4862 204.941 35.0879 205.028 36.2914L205.245 39.6844C205.281 40.2187 205.207 40.7548 205.028 41.2593C204.863 41.7165 204.596 42.1297 204.246 42.4671C203.879 42.8115 203.44 43.071 202.962 43.2274C202.423 43.4064 201.857 43.4945 201.289 43.4881H199.788Z" fill="#06F395"/>
</svg>
